Radley.ufo
<glyph name="exclam" format="1">
  <advance width="567"/>
  <unicode hex="0021"/>
  <outline>
    <contour>
      <point x="279" y="1312" type="curve" smooth="yes"/>
      <point x="202" y="1312"/>
      <point x="153" y="1283"/>
      <point x="153" y="1201" type="curve" smooth="yes"/>
      <point x="153" y="1009"/>
      <point x="223" y="644"/>
      <point x="248" y="450" type="curve" smooth="yes"/>
      <point x="251" y="427"/>
      <point x="249" y="356"/>
      <point x="283" y="356" type="curve" smooth="yes"/>
      <point x="312" y="356"/>
      <point x="314" y="447"/>
      <point x="317" y="466" type="curve" smooth="yes"/>
      <point x="344" y="647"/>
      <point x="409" y="1023"/>
      <point x="409" y="1199" type="curve" smooth="yes"/>
      <point x="409" y="1278"/>
      <point x="352" y="1312"/>
    </contour>
    <contour>
      <point x="162" y="92" type="curve" smooth="yes"/>
      <point x="162" y="25"/>
      <point x="216" y="-29"/>
      <point x="283" y="-29" type="curve" smooth="yes"/>
      <point x="350" y="-29"/>
      <point x="407" y="24"/>
      <point x="407" y="92" type="curve" smooth="yes"/>
      <point x="407" y="160"/>
      <point x="351" y="216"/>
      <point x="283" y="216" type="curve" smooth="yes"/>
      <point x="215" y="216"/>
      <point x="162" y="159"/>
    </contour>
  </outline>
</glyph>
<glyph name="quotedbl" format="1">
  <advance width="748"/>
  <unicode hex="0022"/>
  <outline>
    <contour>
      <point x="519" y="753" type="curve"/>
      <point x="582" y="753"/>
      <point x="634" y="1166"/>
      <point x="634" y="1200" type="curve" smooth="yes"/>
      <point x="634" y="1264"/>
      <point x="596" y="1302"/>
      <point x="532" y="1302" type="curve" smooth="yes"/>
      <point x="468" y="1302"/>
      <point x="430" y="1264"/>
      <point x="430" y="1200" type="curve" smooth="yes"/>
      <point x="430" y="1137"/>
      <point x="486" y="829"/>
    </contour>
    <contour>
      <point x="203" y="753" type="curve"/>
      <point x="257" y="752"/>
      <point x="317" y="1107"/>
      <point x="317" y="1200" type="curve" smooth="yes"/>
      <point x="317" y="1264"/>
      <point x="279" y="1302"/>
      <point x="215" y="1302" type="curve" smooth="yes"/>
      <point x="151" y="1302"/>
      <point x="113" y="1264"/>
      <point x="113" y="1200" type="curve" smooth="yes"/>
      <point x="113" y="1139"/>
      <point x="171" y="824"/>
    </contour>
  </outline>
</glyph>
<glyph name="percent" format="1">
  <advance width="1772"/>
  <unicode hex="0025"/>
  <outline>
    <contour>
      <point x="1502" y="337" type="curve" smooth="yes"/>
      <point x="1502" y="158"/>
      <point x="1454" y="41"/>
      <point x="1354" y="41" type="curve" smooth="yes"/>
      <point x="1241" y="41"/>
      <point x="1188" y="172"/>
      <point x="1188" y="363" type="curve" smooth="yes"/>
      <point x="1188" y="555"/>
      <point x="1238" y="677"/>
      <point x="1338" y="677" type="curve" smooth="yes"/>
      <point x="1449" y="677"/>
      <point x="1502" y="541"/>
    </contour>
    <contour>
      <point x="1035" y="358" type="curve" smooth="yes"/>
      <point x="1035" y="152"/>
      <point x="1156" y="-22"/>
      <point x="1354" y="-22" type="curve"/>
      <point x="1540" y="-18"/>
      <point x="1655" y="149"/>
      <point x="1655" y="349" type="curve" smooth="yes"/>
      <point x="1655" y="557"/>
      <point x="1533" y="735"/>
      <point x="1342" y="735" type="curve" smooth="yes"/>
      <point x="1153" y="735"/>
      <point x="1035" y="563"/>
    </contour>
    <contour>
      <point x="491" y="-138" type="curve"/>
      <point x="531" y="-98"/>
      <point x="575" y="-54"/>
      <point x="611" y="18" type="curve"/>
      <point x="863" y="581"/>
      <point x="1127" y="1014"/>
      <point x="1255" y="1238" type="curve"/>
      <point x="1332" y="1368" type="line"/>
      <point x="1312" y="1381"/>
      <point x="1290" y="1396"/>
      <point x="1239" y="1396" type="curve"/>
      <point x="1142" y="1315"/>
      <point x="1089" y="1136"/>
      <point x="1020" y="1017" type="curve"/>
      <point x="491" y="34" type="line"/>
      <point x="463" y="-14"/>
      <point x="436" y="-60"/>
      <point x="410" y="-108" type="curve"/>
      <point x="430" y="-125"/>
      <point x="459" y="-138"/>
    </contour>
    <contour>
      <point x="115" y="950" type="curve" smooth="yes"/>
      <point x="115" y="745"/>
      <point x="237" y="571"/>
      <point x="435" y="571" type="curve"/>
      <point x="621" y="574"/>
      <point x="736" y="742"/>
      <point x="736" y="941" type="curve" smooth="yes"/>
      <point x="736" y="1149"/>
      <point x="614" y="1327"/>
      <point x="423" y="1327" type="curve" smooth="yes"/>
      <point x="233" y="1327"/>
      <point x="115" y="1155"/>
    </contour>
    <contour>
      <point x="583" y="929" type="curve" smooth="yes"/>
      <point x="583" y="750"/>
      <point x="535" y="633"/>
      <point x="434" y="633" type="curve" smooth="yes"/>
      <point x="321" y="633"/>
      <point x="268" y="765"/>
      <point x="268" y="956" type="curve" smooth="yes"/>
      <point x="268" y="1148"/>
      <point x="318" y="1270"/>
      <point x="419" y="1270" type="curve" smooth="yes"/>
      <point x="530" y="1270"/>
      <point x="583" y="1133"/>
    </contour>
  </outline>
</glyph>
<glyph name="parenleft" format="1">
  <advance width="687"/>
  <unicode hex="0028"/>
  <outline>
    <contour>
      <point x="666" y="-208" type="line"/>
      <point x="389" y="-41"/>
      <point x="279" y="262"/>
      <point x="279" y="571" type="curve" smooth="yes"/>
      <point x="279" y="878"/>
      <point x="389" y="1187"/>
      <point x="666" y="1350" type="curve"/>
      <point x="613" y="1409" type="line"/>
      <point x="285" y="1261"/>
      <point x="147" y="913"/>
      <point x="147" y="571" type="curve" smooth="yes"/>
      <point x="147" y="229"/>
      <point x="286" y="-119"/>
      <point x="613" y="-268" type="curve"/>
    </contour>
  </outline>
</glyph>
<glyph name="parenright" format="1">
  <advance width="687"/>
  <unicode hex="0029"/>
  <outline>
    <contour>
      <point x="21" y="1350" type="curve"/>
      <point x="296" y="1180"/>
      <point x="408" y="881"/>
      <point x="408" y="571" type="curve" smooth="yes"/>
      <point x="408" y="258"/>
      <point x="295" y="-35"/>
      <point x="21" y="-208" type="curve"/>
      <point x="31" y="-234"/>
      <point x="53" y="-252"/>
      <point x="74" y="-268" type="curve"/>
      <point x="401" y="-119"/>
      <point x="540" y="229"/>
      <point x="540" y="571" type="curve" smooth="yes"/>
      <point x="540" y="913"/>
      <point x="401" y="1261"/>
      <point x="74" y="1409" type="curve"/>
      <point x="53" y="1393"/>
      <point x="31" y="1376"/>
    </contour>
  </outline>
</glyph>
<glyph name="one" format="1">
  <advance width="743"/>
  <unicode hex="0031"/>
  <outline>
    <contour>
      <point x="465" y="770" type="line" smooth="yes"/>
      <point x="465" y="886"/>
      <point x="670" y="815"/>
      <point x="670" y="880" type="curve" smooth="yes"/>
      <point x="670" y="883"/>
      <point x="668" y="889"/>
      <point x="665" y="899" type="curve"/>
      <point x="77" y="899" type="line"/>
      <point x="74" y="890"/>
      <point x="73" y="885"/>
      <point x="73" y="882" type="curve" smooth="yes"/>
      <point x="73" y="823"/>
      <point x="272" y="876"/>
      <point x="272" y="769" type="curve"/>
      <point x="272" y="127" type="line" smooth="yes"/>
      <point x="272" y="20"/>
      <point x="73" y="73"/>
      <point x="73" y="14" type="curve" smooth="yes"/>
      <point x="73" y="11"/>
      <point x="74" y="6"/>
      <point x="77" y="-3" type="curve"/>
      <point x="665" y="-3" type="line"/>
      <point x="668" y="7"/>
      <point x="670" y="13"/>
      <point x="670" y="16" type="curve" smooth="yes"/>
      <point x="670" y="81"/>
      <point x="465" y="10"/>
      <point x="465" y="126" type="curve" smooth="yes"/>
    </contour>
  </outline>
</glyph>
<glyph name="eight" format="1">
  <advance width="1013"/>
  <unicode hex="0038"/>
  <outline>
    <contour>
      <point x="82" y="283" type="curve" smooth="yes"/>
      <point x="82" y="115"/>
      <point x="241" y="-20"/>
      <point x="489" y="-20" type="curve" smooth="yes"/>
      <point x="836" y="-20"/>
      <point x="935" y="132"/>
      <point x="935" y="272" type="curve" smooth="yes"/>
      <point x="935" y="480"/>
      <point x="790" y="588"/>
      <point x="642" y="681" type="curve"/>
      <point x="755" y="767"/>
      <point x="841" y="846"/>
      <point x="841" y="980" type="curve" smooth="yes"/>
      <point x="841" y="1078"/>
      <point x="756" y="1215"/>
      <point x="516" y="1215" type="curve" smooth="yes"/>
      <point x="270" y="1215"/>
      <point x="137" y="1099"/>
      <point x="137" y="951" type="curve" smooth="yes"/>
      <point x="137" y="811"/>
      <point x="236" y="714"/>
      <point x="349" y="631" type="curve"/>
      <point x="209" y="537"/>
      <point x="82" y="436"/>
    </contour>
    <contour>
      <point x="504" y="59" type="curve" smooth="yes"/>
      <point x="313" y="59"/>
      <point x="214" y="147"/>
      <point x="214" y="285" type="curve" smooth="yes"/>
      <point x="214" y="391"/>
      <point x="335" y="472"/>
      <point x="474" y="560" type="curve"/>
      <point x="494" y="547" type="line" smooth="yes"/>
      <point x="621" y="465"/>
      <point x="735" y="392"/>
      <point x="735" y="285" type="curve" smooth="yes"/>
      <point x="735" y="183"/>
      <point x="683" y="59"/>
    </contour>
    <contour>
      <point x="315" y="1005" type="curve" smooth="yes"/>
      <point x="315" y="1091"/>
      <point x="387" y="1142"/>
      <point x="516" y="1142" type="curve" smooth="yes"/>
      <point x="674" y="1142"/>
      <point x="713" y="1065"/>
      <point x="713" y="986" type="curve" smooth="yes"/>
      <point x="713" y="889"/>
      <point x="641" y="829"/>
      <point x="526" y="754" type="curve"/>
      <point x="410" y="825"/>
      <point x="315" y="897"/>
    </contour>
  </outline>
</glyph>
<glyph name="colon" format="1">
  <advance width="590"/>
  <unicode hex="003A"/>
  <outline>
    <contour>
      <point x="294" y="251" type="curve" smooth="yes"/>
      <point x="218" y="251"/>
      <point x="157" y="189"/>
      <point x="157" y="116" type="curve" smooth="yes"/>
      <point x="157" y="42"/>
      <point x="218" y="-20"/>
      <point x="294" y="-20" type="curve" smooth="yes"/>
      <point x="371" y="-20"/>
      <point x="433" y="44"/>
      <point x="433" y="116" type="curve" smooth="yes"/>
      <point x="433" y="189"/>
      <point x="371" y="251"/>
    </contour>
    <contour>
      <point x="294" y="1039" type="curve" smooth="yes"/>
      <point x="218" y="1039"/>
      <point x="157" y="976"/>
      <point x="157" y="904" type="curve" smooth="yes"/>
      <point x="157" y="830"/>
      <point x="218" y="768"/>
      <point x="294" y="768" type="curve" smooth="yes"/>
      <point x="371" y="768"/>
      <point x="433" y="832"/>
      <point x="433" y="904" type="curve" smooth="yes"/>
      <point x="433" y="976"/>
      <point x="371" y="1039"/>
    </contour>
  </outline>
</glyph>
<glyph name="semicolon" format="1">
  <advance width="594"/>
  <unicode hex="003B"/>
  <outline>
    <contour>
      <point x="294" y="1039" type="curve" smooth="yes"/>
      <point x="218" y="1039"/>
      <point x="157" y="976"/>
      <point x="157" y="904" type="curve" smooth="yes"/>
      <point x="157" y="830"/>
      <point x="218" y="768"/>
      <point x="294" y="768" type="curve" smooth="yes"/>
      <point x="371" y="768"/>
      <point x="433" y="832"/>
      <point x="433" y="904" type="curve" smooth="yes"/>
      <point x="433" y="976"/>
      <point x="371" y="1039"/>
    </contour>
    <contour>
      <point x="133" y="-268" type="curve"/>
      <point x="312" y="-264"/>
      <point x="468" y="-163"/>
      <point x="468" y="45" type="curve" smooth="yes"/>
      <point x="468" y="217"/>
      <point x="381" y="311"/>
      <point x="276" y="311" type="curve" smooth="yes"/>
      <point x="190" y="311"/>
      <point x="135" y="252"/>
      <point x="135" y="174" type="curve" smooth="yes"/>
      <point x="135" y="110"/>
      <point x="171" y="66"/>
      <point x="233" y="56" type="curve" smooth="yes"/>
      <point x="286" y="47"/>
      <point x="316" y="22"/>
      <point x="335" y="-23" type="curve"/>
      <point x="335" y="-153"/>
      <point x="220" y="-174"/>
      <point x="116" y="-208" type="curve"/>
      <point x="116" y="-236"/>
      <point x="124" y="-253"/>
    </contour>
  </outline>
</glyph>
<glyph name="less" format="1">
  <advance width="626"/>
  <unicode hex="003C"/>
  <outline>
    <contour>
      <point x="479" y="18" type="curve" smooth="yes"/>
      <point x="508" y="18"/>
      <point x="524" y="42"/>
      <point x="524" y="69" type="curve" smooth="yes"/>
      <point x="524" y="144"/>
      <point x="246" y="482"/>
      <point x="195" y="553" type="curve"/>
      <point x="302" y="688"/>
      <point x="472" y="855"/>
      <point x="542" y="1009" type="curve"/>
      <point x="542" y="1047"/>
      <point x="502" y="1068"/>
      <point x="469" y="1068" type="curve"/>
      <point x="361" y="996"/>
      <point x="151" y="668"/>
      <point x="64" y="553" type="curve"/>
      <point x="403" y="59" type="line" smooth="yes"/>
      <point x="424" y="29"/>
      <point x="443" y="18"/>
    </contour>
  </outline>
</glyph>
<glyph name="B" format="1">
  <advance width="1386"/>
  <unicode hex="0042"/>
  <outline>
    <contour>
      <point x="284" y="221" type="line" smooth="yes"/>
      <point x="284" y="95"/>
      <point x="163" y="80"/>
      <point x="68" y="52" type="curve"/>
      <point x="70" y="0" type="line"/>
      <point x="790" y="0" type="line" smooth="yes"/>
      <point x="1009" y="0"/>
      <point x="1297" y="81"/>
      <point x="1297" y="349" type="curve" smooth="yes"/>
      <point x="1297" y="574"/>
      <point x="1058" y="660"/>
      <point x="870" y="669" type="curve"/>
      <point x="1042" y="698"/>
      <point x="1231" y="771"/>
      <point x="1231" y="975" type="curve" smooth="yes"/>
      <point x="1231" y="1292"/>
      <point x="871" y="1302"/>
      <point x="638" y="1302" type="curve" smooth="yes"/>
      <point x="70" y="1302" type="line"/>
      <point x="68" y="1251" type="line"/>
      <point x="223" y="1188"/>
      <point x="284" y="1236"/>
      <point x="284" y="1023" type="curve" smooth="yes"/>
    </contour>
    <contour>
      <point x="524" y="630" type="curve"/>
      <point x="736" y="630"/>
      <point x="1047" y="627"/>
      <point x="1047" y="336" type="curve" smooth="yes"/>
      <point x="1047" y="177"/>
      <point x="922" y="87"/>
      <point x="771" y="87" type="curve" smooth="yes"/>
      <point x="609" y="87" type="line" smooth="yes"/>
      <point x="518" y="87"/>
      <point x="499" y="205"/>
      <point x="499" y="274" type="curve" smooth="yes"/>
      <point x="499" y="542" type="line" smooth="yes"/>
      <point x="499" y="572"/>
      <point x="499" y="608"/>
    </contour>
    <contour>
      <point x="499" y="1227" type="line"/>
      <point x="545" y="1227" type="line" smooth="yes"/>
      <point x="754" y="1227"/>
      <point x="1032" y="1223"/>
      <point x="1032" y="943" type="curve" smooth="yes"/>
      <point x="1032" y="749"/>
      <point x="880" y="700"/>
      <point x="712" y="700" type="curve" smooth="yes"/>
      <point x="579" y="700" type="line" smooth="yes"/>
      <point x="553" y="700"/>
      <point x="518" y="713"/>
      <point x="499" y="730" type="curve"/>
    </contour>
  </outline>
</glyph>
<glyph name="C" format="1">
  <advance width="1426"/>
  <unicode hex="0043"/>
  <outline>
    <contour>
      <point x="1280" y="1245" type="line"/>
      <point x="1136" y="1301"/>
      <point x="999" y="1327"/>
      <point x="864" y="1327" type="curve" smooth="yes"/>
      <point x="405" y="1327"/>
      <point x="112" y="1022"/>
      <point x="112" y="640" type="curve" smooth="yes"/>
      <point x="112" y="225"/>
      <point x="415" y="-26"/>
      <point x="806" y="-26" type="curve" smooth="yes"/>
      <point x="968" y="-26"/>
      <point x="1176" y="26"/>
      <point x="1323" y="108" type="curve"/>
      <point x="1332" y="297" type="line"/>
      <point x="1283" y="304" type="line"/>
      <point x="1204" y="155"/>
      <point x="1056" y="81"/>
      <point x="878" y="81" type="curve" smooth="yes"/>
      <point x="555" y="81"/>
      <point x="346" y="315"/>
      <point x="346" y="680" type="curve" smooth="yes"/>
      <point x="346" y="1048"/>
      <point x="581" y="1250"/>
      <point x="836" y="1250" type="curve" smooth="yes"/>
      <point x="952" y="1250"/>
      <point x="1064" y="1209"/>
      <point x="1156" y="1117" type="curve" smooth="yes"/>
      <point x="1198" y="1075"/>
      <point x="1235" y="980"/>
      <point x="1274" y="941" type="curve"/>
      <point x="1321" y="943" type="line"/>
    </contour>
    <contour>
      <point x="835" y="1302" type="move" name="top"/>
    </contour>
  </outline>
</glyph>
<glyph name="F" format="1">
  <advance width="1262"/>
  <unicode hex="0046"/>
  <outline>
    <contour>
      <point x="1085" y="901" type="line"/>
      <point x="1026" y="903" type="line"/>
      <point x="994" y="850"/>
      <point x="982" y="767"/>
      <point x="913" y="749" type="curve" smooth="yes"/>
      <point x="852" y="733"/>
      <point x="786" y="729"/>
      <point x="719" y="729" type="curve" smooth="yes"/>
      <point x="653" y="729"/>
      <point x="586" y="733"/>
      <point x="506" y="733" type="curve"/>
      <point x="506" y="1160" type="line" smooth="yes"/>
      <point x="506" y="1229"/>
      <point x="519" y="1232"/>
      <point x="587" y="1232" type="curve" smooth="yes"/>
      <point x="779" y="1232" type="line" smooth="yes"/>
      <point x="850" y="1232"/>
      <point x="922" y="1232"/>
      <point x="992" y="1222" type="curve" smooth="yes"/>
      <point x="1106" y="1205"/>
      <point x="1125" y="1067"/>
      <point x="1192" y="993" type="curve"/>
      <point x="1237" y="995" type="line"/>
      <point x="1237" y="1305" type="line"/>
      <point x="1069" y="1303" type="line" smooth="yes"/>
      <point x="1050" y="1303"/>
      <point x="74" y="1302"/>
      <point x="68" y="1302" type="curve"/>
      <point x="68" y="1251" type="line"/>
      <point x="228" y="1193"/>
      <point x="291" y="1231"/>
      <point x="291" y="1021" type="curve" smooth="yes"/>
      <point x="291" y="261" type="line" smooth="yes"/>
      <point x="291" y="40"/>
      <point x="216" y="116"/>
      <point x="74" y="52" type="curve"/>
      <point x="76" y="0" type="line"/>
      <point x="750" y="0" type="line"/>
      <point x="750" y="52" type="line"/>
      <point x="598" y="106"/>
      <point x="506" y="36"/>
      <point x="506" y="258" type="curve" smooth="yes"/>
      <point x="506" y="657" type="line"/>
      <point x="755" y="657" type="line" smooth="yes"/>
      <point x="917" y="657"/>
      <point x="940" y="645"/>
      <point x="1028" y="463" type="curve"/>
      <point x="1047" y="463"/>
      <point x="1066" y="464"/>
      <point x="1085" y="466" type="curve"/>
    </contour>
  </outline>
</glyph>
<glyph name="J" format="1">
  <advance width="726"/>
  <unicode hex="004A"/>
  <outline>
    <contour>
      <point x="329" y="1302" type="move" name="top"/>
    </contour>
    <contour>
      <point x="49" y="1302" type="line"/>
      <point x="46" y="1250" type="line"/>
      <point x="201" y="1195"/>
      <point x="274" y="1249"/>
      <point x="274" y="1035" type="curve" smooth="yes"/>
      <point x="274" y="6" type="line" smooth="yes"/>
      <point x="274" y="-90"/>
      <point x="267" y="-251"/>
      <point x="195" y="-251" type="curve" smooth="yes"/>
      <point x="117" y="-251"/>
      <point x="135" y="-122"/>
      <point x="31" y="-122" type="curve" smooth="yes"/>
      <point x="-19" y="-122"/>
      <point x="-58" y="-155"/>
      <point x="-58" y="-207" type="curve" smooth="yes"/>
      <point x="-58" y="-304"/>
      <point x="66" y="-333"/>
      <point x="142" y="-333" type="curve" smooth="yes"/>
      <point x="420" y="-333"/>
      <point x="489" y="-59"/>
      <point x="489" y="170" type="curve" smooth="yes"/>
      <point x="489" y="1044" type="line" smooth="yes"/>
      <point x="489" y="1260"/>
      <point x="574" y="1190"/>
      <point x="716" y="1251" type="curve"/>
      <point x="716" y="1302" type="line"/>
    </contour>
  </outline>
</glyph>
<glyph name="L" format="1">
  <advance width="1296"/>
  <unicode hex="004C"/>
  <outline>
    <contour>
      <point x="299" y="240" type="line" smooth="yes"/>
      <point x="299" y="88"/>
      <point x="178" y="92"/>
      <point x="68" y="54" type="curve"/>
      <point x="70" y="0" type="line"/>
      <point x="1023" y="0" type="line" smooth="yes"/>
      <point x="1096" y="0"/>
      <point x="1169" y="-5"/>
      <point x="1242" y="-11" type="curve"/>
      <point x="1305" y="342" type="line"/>
      <point x="1245" y="344" type="line"/>
      <point x="1211" y="308"/>
      <point x="1193" y="260"/>
      <point x="1171" y="217" type="curve" smooth="yes"/>
      <point x="1105" y="91"/>
      <point x="988" y="74"/>
      <point x="865" y="74" type="curve" smooth="yes"/>
      <point x="556" y="74"/>
      <point x="515" y="79"/>
      <point x="515" y="312" type="curve" smooth="yes"/>
      <point x="515" y="1040" type="line" smooth="yes"/>
      <point x="515" y="1263"/>
      <point x="594" y="1188"/>
      <point x="747" y="1250" type="curve"/>
      <point x="747" y="1302" type="line"/>
      <point x="71" y="1302" type="line"/>
      <point x="69" y="1251" type="line"/>
      <point x="233" y="1199"/>
      <point x="299" y="1250"/>
      <point x="299" y="1034" type="curve" smooth="yes"/>
    </contour>
  </outline>
</glyph>
<glyph name="M" format="1">
  <advance width="1925"/>
  <unicode hex="004D"/>
  <outline>
    <contour>
      <point x="1606" y="1082" type="line"/>
      <point x="1606" y="1188"/>
      <point x="1690" y="1216"/>
      <point x="1773" y="1244" type="curve" smooth="yes"/>
      <point x="1791" y="1250" type="line"/>
      <point x="1791" y="1302" type="line"/>
      <point x="1377" y="1302" type="line"/>
      <point x="1377" y="1247"/>
      <point x="1366" y="1166"/>
      <point x="1329" y="1081" type="curve" smooth="yes"/>
      <point x="972" y="267" type="line"/>
      <point x="612" y="1034" type="line" smooth="yes"/>
      <point x="572" y="1119"/>
      <point x="547" y="1210"/>
      <point x="525" y="1302" type="curve"/>
      <point x="136" y="1302" type="line"/>
      <point x="134" y="1251" type="line"/>
      <point x="214" y="1209"/>
      <point x="319" y="1219"/>
      <point x="319" y="1096" type="curve" smooth="yes"/>
      <point x="319" y="1054"/>
      <point x="316" y="1009"/>
      <point x="312" y="968" type="curve" smooth="yes"/>
      <point x="236" y="220" type="line" smooth="yes"/>
      <point x="223" y="94"/>
      <point x="126" y="90"/>
      <point x="33" y="52" type="curve"/>
      <point x="35" y="0" type="line"/>
      <point x="519" y="0" type="line"/>
      <point x="521" y="52" type="line"/>
      <point x="421" y="88"/>
      <point x="330" y="101"/>
      <point x="330" y="232" type="curve" smooth="yes"/>
      <point x="330" y="495"/>
      <point x="372" y="766"/>
      <point x="395" y="1029" type="curve"/>
      <point x="534" y="678"/>
      <point x="761" y="240"/>
      <point x="870" y="0" type="curve"/>
      <point x="949" y="0" type="line"/>
      <point x="970" y="69"/>
      <point x="993" y="139"/>
      <point x="1022" y="205" type="curve" smooth="yes"/>
      <point x="1404" y="1068" type="line"/>
      <point x="1466" y="211" type="line"/>
      <point x="1466" y="99"/>
      <point x="1356" y="80"/>
      <point x="1272" y="52" type="curve"/>
      <point x="1274" y="0" type="line"/>
      <point x="1897" y="0" type="line"/>
      <point x="1899" y="52" type="line"/>
      <point x="1859" y="83"/>
      <point x="1754" y="59"/>
      <point x="1734" y="117" type="curve"/>
      <point x="1696" y="159"/>
      <point x="1683" y="216"/>
      <point x="1678" y="271" type="curve" smooth="yes"/>
    </contour>
  </outline>
</glyph>
<glyph name="O" format="1">
  <advance width="1603"/>
  <unicode hex="004F"/>
  <outline>
    <contour>
      <point x="801" y="1302" type="move" name="top"/>
    </contour>
    <contour>
      <point x="345" y="720" type="curve" smooth="yes"/>
      <point x="345" y="1071"/>
      <point x="541" y="1250"/>
      <point x="769" y="1250" type="curve" smooth="yes"/>
      <point x="1060" y="1250"/>
      <point x="1258" y="958"/>
      <point x="1258" y="585" type="curve" smooth="yes"/>
      <point x="1258" y="248"/>
      <point x="1076" y="51"/>
      <point x="837" y="51" type="curve" smooth="yes"/>
      <point x="550" y="51"/>
      <point x="345" y="340"/>
    </contour>
    <contour>
      <point x="112" y="637" type="curve" smooth="yes"/>
      <point x="112" y="224"/>
      <point x="435" y="-26"/>
      <point x="784" y="-26" type="curve" smooth="yes"/>
      <point x="1167" y="-26"/>
      <point x="1491" y="240"/>
      <point x="1491" y="648" type="curve" smooth="yes"/>
      <point x="1491" y="1063"/>
      <point x="1178" y="1327"/>
      <point x="804" y="1327" type="curve" smooth="yes"/>
      <point x="460" y="1327"/>
      <point x="112" y="1095"/>
    </contour>
  </outline>
</glyph>
<glyph name="T" format="1">
  <advance width="1395"/>
  <unicode hex="0054"/>
  <outline>
    <contour>
      <point x="586" y="241" type="line" smooth="yes"/>
      <point x="586" y="95"/>
      <point x="469" y="89"/>
      <point x="361" y="52" type="curve"/>
      <point x="363" y="0" type="line"/>
      <point x="1025" y="0" type="line"/>
      <point x="1027" y="17"/>
      <point x="1027" y="35"/>
      <point x="1027" y="52" type="curve"/>
      <point x="890" y="69"/>
      <point x="801" y="80"/>
      <point x="801" y="241" type="curve" smooth="yes"/>
      <point x="801" y="1228" type="line"/>
      <point x="864" y="1228"/>
      <point x="909" y="1228"/>
      <point x="954" y="1228" type="curve" smooth="yes"/>
      <point x="1006" y="1228"/>
      <point x="1058" y="1228"/>
      <point x="1109" y="1220" type="curve" smooth="yes"/>
      <point x="1211" y="1205"/>
      <point x="1258" y="1054"/>
      <point x="1317" y="981" type="curve"/>
      <point x="1365" y="981" type="line"/>
      <point x="1333" y="1310" type="line"/>
      <point x="1181" y="1300"/>
      <point x="1028" y="1302"/>
      <point x="875" y="1302" type="curve" smooth="yes"/>
      <point x="602" y="1302"/>
      <point x="329" y="1297"/>
      <point x="59" y="1308" type="curve"/>
      <point x="34" y="982" type="line"/>
      <point x="80" y="982" type="line"/>
      <point x="141" y="1056"/>
      <point x="188" y="1204"/>
      <point x="294" y="1220" type="curve" smooth="yes"/>
      <point x="341" y="1227"/>
      <point x="391" y="1228"/>
      <point x="440" y="1228" type="curve" smooth="yes"/>
      <point x="586" y="1228" type="line"/>
    </contour>
  </outline>
</glyph>
<glyph name="Z" format="1">
  <advance width="1305"/>
  <unicode hex="005A"/>
  <outline>
    <contour>
      <point x="1219" y="357" type="line"/>
      <point x="1163" y="359" type="line"/>
      <point x="1120" y="315"/>
      <point x="1086" y="257"/>
      <point x="1057" y="203" type="curve" smooth="yes"/>
      <point x="1020" y="134"/>
      <point x="989" y="104"/>
      <point x="910" y="92" type="curve" smooth="yes"/>
      <point x="812" y="76"/>
      <point x="711" y="74"/>
      <point x="610" y="74" type="curve" smooth="yes"/>
      <point x="471" y="74" type="line" smooth="yes"/>
      <point x="440" y="74"/>
      <point x="410" y="80"/>
      <point x="381" y="89" type="curve"/>
      <point x="404" y="127"/>
      <point x="430" y="162"/>
      <point x="455" y="198" type="curve" smooth="yes"/>
      <point x="1200" y="1245" type="line"/>
      <point x="1201" y="1272" type="line" smooth="yes"/>
      <point x="1201" y="1283"/>
      <point x="1200" y="1297"/>
      <point x="1188" y="1302" type="curve"/>
      <point x="859" y="1302"/>
      <point x="530" y="1303"/>
      <point x="202" y="1303" type="curve" smooth="yes"/>
      <point x="170" y="1303" type="line"/>
      <point x="143" y="975" type="line"/>
      <point x="161" y="973"/>
      <point x="178" y="972"/>
      <point x="196" y="972" type="curve"/>
      <point x="227" y="1016"/>
      <point x="250" y="1065"/>
      <point x="276" y="1112" type="curve" smooth="yes"/>
      <point x="338" y="1224"/>
      <point x="420" y="1225"/>
      <point x="531" y="1225" type="curve" smooth="yes"/>
      <point x="927" y="1225" type="line"/>
      <point x="927" y="1225"/>
      <point x="864" y="1134"/>
      <point x="853" y="1119" type="curve" smooth="yes"/>
      <point x="93" y="43" type="line"/>
      <point x="97" y="0" type="line"/>
      <point x="974" y="0" type="line" smooth="yes"/>
      <point x="1021" y="0"/>
      <point x="1069" y="-10"/>
      <point x="1118" y="-10" type="curve" smooth="yes"/>
      <point x="1159" y="-10" type="line"/>
    </contour>
    <contour>
      <point x="646" y="1302" type="move" name="top"/>
    </contour>
  </outline>
</glyph>
<glyph name="bracketleft" format="1">
  <advance width="662"/>
  <unicode hex="005B"/>
  <outline>
    <contour>
      <point x="173" y="1449" type="curve" smooth="yes"/>
      <point x="173" y="1063"/>
      <point x="184" y="678"/>
      <point x="184" y="292" type="curve" smooth="yes"/>
      <point x="184" y="155"/>
      <point x="179" y="18"/>
      <point x="179" y="-119" type="curve" smooth="yes"/>
      <point x="179" y="-165"/>
      <point x="189" y="-199"/>
      <point x="243" y="-199" type="curve" smooth="yes"/>
      <point x="385" y="-199"/>
      <point x="527" y="-214"/>
      <point x="669" y="-214" type="curve" smooth="yes"/>
      <point x="719" y="-214"/>
      <point x="757" y="-200"/>
      <point x="757" y="-143" type="curve" smooth="yes"/>
      <point x="757" y="-109"/>
      <point x="718" y="-56"/>
      <point x="682" y="-56" type="curve" smooth="yes"/>
      <point x="560" y="-56"/>
      <point x="438" y="-61"/>
      <point x="316" y="-62" type="curve"/>
      <point x="313" y="136"/>
      <point x="311" y="334"/>
      <point x="311" y="532" type="curve" smooth="yes"/>
      <point x="311" y="815"/>
      <point x="329" y="1097"/>
      <point x="329" y="1380" type="curve"/>
      <point x="721" y="1380" type="line" smooth="yes"/>
      <point x="769" y="1380"/>
      <point x="816" y="1399"/>
      <point x="816" y="1455" type="curve" smooth="yes"/>
      <point x="816" y="1509"/>
      <point x="763" y="1529"/>
      <point x="717" y="1529" type="curve" smooth="yes"/>
      <point x="565" y="1529"/>
      <point x="412" y="1524"/>
      <point x="260" y="1524" type="curve" smooth="yes"/>
      <point x="226" y="1524"/>
      <point x="173" y="1485"/>
    </contour>
  </outline>
</glyph>
<glyph name="backslash" format="1">
  <advance width="689"/>
  <unicode hex="005C"/>
  <outline>
    <contour>
      <point x="17" y="1378" type="curve"/>
      <point x="152" y="928"/>
      <point x="350" y="498"/>
      <point x="502" y="53" type="curve" smooth="yes"/>
      <point x="521" y="-3"/>
      <point x="542" y="-58"/>
      <point x="567" y="-112" type="curve"/>
      <point x="586" y="-117"/>
      <point x="606" y="-117"/>
      <point x="625" y="-117" type="curve" smooth="yes"/>
      <point x="644" y="-117" type="line"/>
      <point x="639" y="-58"/>
      <point x="638" y="17"/>
      <point x="617" y="72" type="curve" smooth="yes"/>
      <point x="216" y="1142" type="line" smooth="yes"/>
      <point x="183" y="1229"/>
      <point x="167" y="1336"/>
      <point x="97" y="1402" type="curve"/>
      <point x="68" y="1402"/>
      <point x="40" y="1396"/>
    </contour>
  </outline>
</glyph>
<glyph name="a" format="1">
  <advance width="1013"/>
  <unicode hex="0061"/>
  <outline>
    <contour>
      <point x="539" y="900" type="move" name="top"/>
    </contour>
    <contour>
      <point x="630" y="200" type="line"/>
      <point x="572" y="143"/>
      <point x="496" y="93"/>
      <point x="412" y="93" type="curve" smooth="yes"/>
      <point x="333" y="93"/>
      <point x="288" y="142"/>
      <point x="288" y="220" type="curve" smooth="yes"/>
      <point x="288" y="361"/>
      <point x="527" y="420"/>
      <point x="630" y="455" type="curve"/>
    </contour>
    <contour>
      <point x="630" y="514" type="line"/>
      <point x="458" y="469"/>
      <point x="91" y="412"/>
      <point x="91" y="178" type="curve" smooth="yes"/>
      <point x="91" y="47"/>
      <point x="200" y="-20"/>
      <point x="321" y="-20" type="curve" smooth="yes"/>
      <point x="444" y="-20"/>
      <point x="551" y="40"/>
      <point x="633" y="129" type="curve"/>
      <point x="638" y="41"/>
      <point x="699" y="-20"/>
      <point x="788" y="-20" type="curve" smooth="yes"/>
      <point x="890" y="-20"/>
      <point x="938" y="40"/>
      <point x="988" y="123" type="curve"/>
      <point x="946" y="168" type="line"/>
      <point x="928" y="145"/>
      <point x="890" y="99"/>
      <point x="858" y="99" type="curve" smooth="yes"/>
      <point x="820" y="99"/>
      <point x="811" y="212"/>
      <point x="811" y="324" type="curve" smooth="yes"/>
      <point x="811" y="419"/>
      <point x="817" y="514"/>
      <point x="817" y="541" type="curve" smooth="yes"/>
      <point x="817" y="797"/>
      <point x="782" y="926"/>
      <point x="492" y="926" type="curve" smooth="yes"/>
      <point x="361" y="926"/>
      <point x="122" y="866"/>
      <point x="122" y="698" type="curve" smooth="yes"/>
      <point x="122" y="633"/>
      <point x="161" y="572"/>
      <point x="231" y="572" type="curve" smooth="yes"/>
      <point x="285" y="572"/>
      <point x="322" y="612"/>
      <point x="322" y="665" type="curve" smooth="yes"/>
      <point x="322" y="700"/>
      <point x="288" y="727"/>
      <point x="288" y="762" type="curve" smooth="yes"/>
      <point x="288" y="821"/>
      <point x="401" y="852"/>
      <point x="447" y="852" type="curve" smooth="yes"/>
      <point x="606" y="852"/>
      <point x="630" y="739"/>
      <point x="630" y="609" type="curve" smooth="yes"/>
    </contour>
  </outline>
</glyph>
<glyph name="n" format="1">
  <advance width="1200"/>
  <unicode hex="006E"/>
  <outline>
    <contour>
      <point x="385" y="668" type="line"/>
      <point x="458" y="745"/>
      <point x="548" y="818"/>
      <point x="651" y="818" type="curve" smooth="yes"/>
      <point x="841" y="818"/>
      <point x="841" y="657"/>
      <point x="841" y="449" type="curve" smooth="yes"/>
      <point x="841" y="226" type="line" smooth="yes"/>
      <point x="841" y="198"/>
      <point x="840" y="172"/>
      <point x="836" y="149" type="curve" smooth="yes"/>
      <point x="824" y="76"/>
      <point x="729" y="70"/>
      <point x="678" y="50" type="curve"/>
      <point x="678" y="34"/>
      <point x="680" y="0"/>
      <point x="680" y="0" type="curve"/>
      <point x="1173" y="0" type="line"/>
      <point x="1173" y="0"/>
      <point x="1174" y="16"/>
      <point x="1174" y="32" type="curve" smooth="yes"/>
      <point x="1174" y="40"/>
      <point x="1174" y="48"/>
      <point x="1173" y="54" type="curve"/>
      <point x="1061" y="91"/>
      <point x="1028" y="73"/>
      <point x="1028" y="245" type="curve" smooth="yes"/>
      <point x="1028" y="468" type="line" smooth="yes"/>
      <point x="1028" y="512"/>
      <point x="1027" y="556"/>
      <point x="1025" y="599" type="curve" smooth="yes"/>
      <point x="1016" y="819"/>
      <point x="904" y="926"/>
      <point x="713" y="926" type="curve" smooth="yes"/>
      <point x="574" y="926"/>
      <point x="456" y="847"/>
      <point x="388" y="755" type="curve"/>
      <point x="377" y="917" type="line"/>
      <point x="316" y="913" type="line"/>
      <point x="43" y="845" type="line"/>
      <point x="40" y="811" type="line"/>
      <point x="40" y="811"/>
      <point x="173" y="778"/>
      <point x="199" y="727" type="curve"/>
      <point x="199" y="185" type="line" smooth="yes"/>
      <point x="199" y="89"/>
      <point x="134" y="75"/>
      <point x="44" y="54" type="curve"/>
      <point x="43" y="48"/>
      <point x="43" y="40"/>
      <point x="43" y="32" type="curve" smooth="yes"/>
      <point x="43" y="16"/>
      <point x="44" y="0"/>
      <point x="44" y="0" type="curve"/>
      <point x="559" y="0" type="line"/>
      <point x="559" y="0"/>
      <point x="561" y="33"/>
      <point x="561" y="50" type="curve"/>
      <point x="450" y="61"/>
      <point x="385" y="101"/>
      <point x="385" y="222" type="curve" smooth="yes"/>
    </contour>
    <contour>
      <point x="607" y="900" type="move" name="top"/>
    </contour>
  </outline>
</glyph>
<glyph name="o" format="1">
  <advance width="1111"/>
  <unicode hex="006F"/>
  <outline>
    <contour>
      <point x="555" y="900" type="move" name="top"/>
    </contour>
    <contour>
      <point x="282" y="515" type="curve" smooth="yes"/>
      <point x="282" y="755"/>
      <point x="396" y="859"/>
      <point x="543" y="859" type="curve" smooth="yes"/>
      <point x="721" y="859"/>
      <point x="832" y="642"/>
      <point x="832" y="388" type="curve" smooth="yes"/>
      <point x="832" y="200"/>
      <point x="749" y="58"/>
      <point x="573" y="58" type="curve" smooth="yes"/>
      <point x="392" y="58"/>
      <point x="282" y="291"/>
    </contour>
    <contour>
      <point x="82" y="456" type="curve" smooth="yes"/>
      <point x="82" y="174"/>
      <point x="308" y="-20"/>
      <point x="560" y="-20" type="curve" smooth="yes"/>
      <point x="812" y="-20"/>
      <point x="1029" y="166"/>
      <point x="1029" y="457" type="curve" smooth="yes"/>
      <point x="1029" y="747"/>
      <point x="813" y="926"/>
      <point x="549" y="926" type="curve" smooth="yes"/>
      <point x="301" y="926"/>
      <point x="82" y="739"/>
    </contour>
  </outline>
</glyph>
<glyph name="s" format="1">
  <advance width="854"/>
  <unicode hex="0073"/>
  <outline>
    <contour>
      <point x="436" y="900" type="move" name="top"/>
    </contour>
    <contour>
      <point x="685" y="853" type="line"/>
      <point x="611" y="900"/>
      <point x="517" y="926"/>
      <point x="413" y="926" type="curve" smooth="yes"/>
      <point x="248" y="926"/>
      <point x="117" y="843"/>
      <point x="117" y="684" type="curve" smooth="yes"/>
      <point x="117" y="573"/>
      <point x="174" y="501"/>
      <point x="270" y="441" type="curve" smooth="yes"/>
      <point x="448" y="329"/>
      <point x="597" y="296"/>
      <point x="597" y="183" type="curve" smooth="yes"/>
      <point x="597" y="102"/>
      <point x="523" y="50"/>
      <point x="427" y="50" type="curve" smooth="yes"/>
      <point x="281" y="50"/>
      <point x="212" y="169"/>
      <point x="185" y="301" type="curve"/>
      <point x="174" y="301"/>
      <point x="163" y="300"/>
      <point x="132" y="296" type="curve"/>
      <point x="132" y="52" type="line"/>
      <point x="205" y="8"/>
      <point x="327" y="-20"/>
      <point x="436" y="-20" type="curve" smooth="yes"/>
      <point x="619" y="-20"/>
      <point x="755" y="67"/>
      <point x="755" y="237" type="curve" smooth="yes"/>
      <point x="755" y="361"/>
      <point x="682" y="436"/>
      <point x="540" y="512" type="curve" smooth="yes"/>
      <point x="421" y="575"/>
      <point x="271" y="634"/>
      <point x="271" y="738" type="curve" smooth="yes"/>
      <point x="271" y="819"/>
      <point x="326" y="859"/>
      <point x="407" y="859" type="curve" smooth="yes"/>
      <point x="538" y="859"/>
      <point x="610" y="750"/>
      <point x="644" y="630" type="curve"/>
      <point x="658" y="630"/>
      <point x="677" y="630"/>
      <point x="691" y="631" type="curve"/>
    </contour>
  </outline>
</glyph>
<glyph name="u" format="1">
  <advance width="1191"/>
  <unicode hex="0075"/>
  <outline>
    <contour>
      <point x="603" y="-20"/>
      <point x="716" y="28"/>
      <point x="821" y="145" type="curve"/>
      <point x="829" y="-15" type="line"/>
      <point x="1157" y="32" type="line"/>
      <point x="1157" y="32"/>
      <point x="1160" y="68"/>
      <point x="1160" y="85" type="curve"/>
      <point x="1079" y="99"/>
      <point x="1002" y="112"/>
      <point x="1002" y="201" type="curve" smooth="yes"/>
      <point x="1002" y="918" type="line"/>
      <point x="940" y="914" type="line"/>
      <point x="659" y="846" type="line"/>
      <point x="657" y="811" type="line"/>
      <point x="657" y="811"/>
      <point x="786" y="778"/>
      <point x="816" y="727" type="curve"/>
      <point x="816" y="220" type="line"/>
      <point x="729" y="134"/>
      <point x="643" y="98"/>
      <point x="554" y="98" type="curve" smooth="yes"/>
      <point x="419" y="98"/>
      <point x="378" y="190"/>
      <point x="378" y="440" type="curve" smooth="yes"/>
      <point x="378" y="918" type="line"/>
      <point x="316" y="914" type="line"/>
      <point x="35" y="846" type="line"/>
      <point x="33" y="811" type="line"/>
      <point x="33" y="811"/>
      <point x="162" y="778"/>
      <point x="192" y="727" type="curve"/>
      <point x="192" y="429" type="line" smooth="yes"/>
      <point x="192" y="197"/>
      <point x="233" y="-20"/>
      <point x="490" y="-20" type="curve" smooth="yes"/>
    </contour>
    <contour>
      <point x="593" y="900" type="move" name="top"/>
    </contour>
  </outline>
</glyph>
<glyph name="bar" format="1">
  <advance width="824"/>
  <unicode hex="007C"/>
  <outline>
    <contour>
      <point x="354" y="1431" type="curve"/>
      <point x="354" y="-283" type="line"/>
      <point x="382" y="-301"/>
      <point x="405" y="-314"/>
      <point x="438" y="-315" type="curve"/>
      <point x="468" y="-244"/>
      <point x="469" y="-164"/>
      <point x="469" y="-88" type="curve" smooth="yes"/>
      <point x="469" y="1244" type="line" smooth="yes"/>
      <point x="469" y="1317"/>
      <point x="455" y="1387"/>
      <point x="440" y="1459" type="curve" smooth="yes"/>
      <point x="438" y="1467" type="line"/>
      <point x="434" y="1467" type="line" smooth="yes"/>
      <point x="403" y="1467"/>
      <point x="372" y="1457"/>
    </contour>
  </outline>
</glyph>
<glyph name="braceright" format="1">
  <advance width="827"/>
  <unicode hex="007D"/>
  <outline>
    <contour>
      <point x="614" y="667" type="curve"/>
      <point x="498" y="676"/>
      <point x="424" y="748"/>
      <point x="424" y="866" type="curve" smooth="yes"/>
      <point x="424" y="964"/>
      <point x="452" y="1059"/>
      <point x="452" y="1157" type="curve" smooth="yes"/>
      <point x="452" y="1372"/>
      <point x="309" y="1484"/>
      <point x="104" y="1497" type="curve"/>
      <point x="101" y="1488"/>
      <point x="98" y="1477"/>
      <point x="98" y="1467" type="curve" smooth="yes"/>
      <point x="98" y="1458"/>
      <point x="100" y="1448"/>
      <point x="104" y="1440" type="curve"/>
      <point x="212" y="1425"/>
      <point x="295" y="1380"/>
      <point x="295" y="1261" type="curve" smooth="yes"/>
      <point x="295" y="1162"/>
      <point x="253" y="1067"/>
      <point x="253" y="967" type="curve" smooth="yes"/>
      <point x="253" y="795"/>
      <point x="363" y="679"/>
      <point x="523" y="632" type="curve"/>
      <point x="365" y="585"/>
      <point x="253" y="468"/>
      <point x="253" y="297" type="curve" smooth="yes"/>
      <point x="253" y="194"/>
      <point x="297" y="97"/>
      <point x="297" y="-4" type="curve" smooth="yes"/>
      <point x="297" y="-117"/>
      <point x="203" y="-161"/>
      <point x="104" y="-176" type="curve"/>
      <point x="96" y="-187"/>
      <point x="96" y="-199"/>
      <point x="96" y="-212" type="curve" smooth="yes"/>
      <point x="96" y="-219"/>
      <point x="99" y="-228"/>
      <point x="104" y="-233" type="curve"/>
      <point x="326" y="-219"/>
      <point x="451" y="-97"/>
      <point x="451" y="127" type="curve" smooth="yes"/>
      <point x="451" y="218"/>
      <point x="424" y="307"/>
      <point x="424" y="399" type="curve" smooth="yes"/>
      <point x="424" y="580"/>
      <point x="530" y="548"/>
      <point x="637" y="619" type="curve"/>
      <point x="637" y="637"/>
      <point x="630" y="657"/>
    </contour>
  </outline>
</glyph>
<glyph name="sterling" format="1">
  <advance width="1238"/>
  <unicode hex="00A3"/>
  <outline>
    <contour>
      <point x="575" y="565" type="line"/>
      <point x="803" y="565" type="line"/>
      <point x="808" y="573"/>
      <point x="809" y="587"/>
      <point x="809" y="607" type="curve" smooth="yes"/>
      <point x="809" y="624"/>
      <point x="808" y="641"/>
      <point x="803" y="657" type="curve"/>
      <point x="575" y="657" type="line"/>
      <point x="571" y="730"/>
      <point x="564" y="804"/>
      <point x="564" y="878" type="curve" smooth="yes"/>
      <point x="564" y="979"/>
      <point x="600" y="1155"/>
      <point x="732" y="1155" type="curve" smooth="yes"/>
      <point x="785" y="1155"/>
      <point x="826" y="1116"/>
      <point x="826" y="1062" type="curve" smooth="yes"/>
      <point x="826" y="1034"/>
      <point x="806" y="1009"/>
      <point x="806" y="979" type="curve" smooth="yes"/>
      <point x="806" y="921"/>
      <point x="851" y="892"/>
      <point x="898" y="892" type="curve" smooth="yes"/>
      <point x="949" y="892"/>
      <point x="1001" y="926"/>
      <point x="1001" y="996" type="curve" smooth="yes"/>
      <point x="1001" y="1142"/>
      <point x="845" y="1201"/>
      <point x="721" y="1201" type="curve" smooth="yes"/>
      <point x="516" y="1201"/>
      <point x="349" y="1070"/>
      <point x="349" y="856" type="curve" smooth="yes"/>
      <point x="349" y="790"/>
      <point x="356" y="723"/>
      <point x="359" y="657" type="curve"/>
      <point x="350" y="657"/>
      <point x="338" y="658"/>
      <point x="324" y="658" type="curve" smooth="yes"/>
      <point x="282" y="658"/>
      <point x="227" y="652"/>
      <point x="227" y="612" type="curve" smooth="yes"/>
      <point x="227" y="570"/>
      <point x="292" y="564"/>
      <point x="339" y="564" type="curve" smooth="yes"/>
      <point x="354" y="564"/>
      <point x="367" y="565"/>
      <point x="376" y="565" type="curve"/>
      <point x="441" y="279" type="line"/>
      <point x="396" y="292"/>
      <point x="350" y="301"/>
      <point x="303" y="301" type="curve" smooth="yes"/>
      <point x="210" y="301"/>
      <point x="139" y="248"/>
      <point x="139" y="151" type="curve" smooth="yes"/>
      <point x="139" y="56"/>
      <point x="208" y="-20"/>
      <point x="305" y="-20" type="curve" smooth="yes"/>
      <point x="390" y="-20"/>
      <point x="463" y="32"/>
      <point x="510" y="100" type="curve"/>
      <point x="601" y="46"/>
      <point x="711" y="-20"/>
      <point x="820" y="-20" type="curve" smooth="yes"/>
      <point x="1020" y="-20"/>
      <point x="1027" y="145"/>
      <point x="1039" y="298" type="curve"/>
      <point x="1034" y="300"/>
      <point x="1026" y="303"/>
      <point x="1020" y="303" type="curve" smooth="yes"/>
      <point x="986" y="303"/>
      <point x="974" y="151"/>
      <point x="817" y="151" type="curve" smooth="yes"/>
      <point x="743" y="151"/>
      <point x="639" y="204"/>
      <point x="570" y="233" type="curve"/>
      <point x="577" y="256"/>
      <point x="590" y="321"/>
      <point x="590" y="350" type="curve"/>
    </contour>
    <contour>
      <point x="322" y="64" type="curve" smooth="yes"/>
      <point x="272" y="64"/>
      <point x="249" y="103"/>
      <point x="249" y="149" type="curve" smooth="yes"/>
      <point x="249" y="178"/>
      <point x="273" y="196"/>
      <point x="301" y="196" type="curve" smooth="yes"/>
      <point x="345" y="196"/>
      <point x="396" y="167"/>
      <point x="433" y="146" type="curve"/>
      <point x="414" y="102"/>
      <point x="372" y="64"/>
    </contour>
  </outline>
</glyph>
<glyph name="yen" format="1">
  <advance width="1340"/>
  <unicode hex="00A5"/>
  <outline>
    <contour>
      <point x="370" y="303" type="line"/>
      <point x="271" y="301"/>
      <point x="249" y="283"/>
      <point x="249" y="254" type="curve" smooth="yes"/>
      <point x="249" y="227"/>
      <point x="266" y="210"/>
      <point x="463" y="210" type="curve" smooth="yes"/>
      <point x="540" y="210" type="line"/>
      <point x="540" y="130" type="line" smooth="yes"/>
      <point x="540" y="14"/>
      <point x="309" y="84"/>
      <point x="309" y="18" type="curve" smooth="yes"/>
      <point x="309" y="13"/>
      <point x="311" y="7"/>
      <point x="314" y="0" type="curve"/>
      <point x="984" y="0" type="line"/>
      <point x="987" y="9"/>
      <point x="988" y="14"/>
      <point x="988" y="17" type="curve" smooth="yes"/>
      <point x="988" y="73"/>
      <point x="755" y="21"/>
      <point x="755" y="124" type="curve" smooth="yes"/>
      <point x="755" y="210" type="line"/>
      <point x="995" y="210" type="line" smooth="yes"/>
      <point x="1034" y="210"/>
      <point x="1088" y="221"/>
      <point x="1088" y="265" type="curve" smooth="yes"/>
      <point x="1088" y="285"/>
      <point x="1064" y="307"/>
      <point x="1011" y="307" type="curve" smooth="yes"/>
      <point x="755" y="307" type="line"/>
      <point x="755" y="393" type="line"/>
      <point x="1006" y="393" type="line" smooth="yes"/>
      <point x="1058" y="393"/>
      <point x="1087" y="415"/>
      <point x="1087" y="434" type="curve" smooth="yes"/>
      <point x="1087" y="479"/>
      <point x="1013" y="487"/>
      <point x="984" y="487" type="curve" smooth="yes"/>
      <point x="755" y="487" type="line"/>
      <point x="755" y="580" type="line"/>
      <point x="1021" y="1040" type="line" smooth="yes"/>
      <point x="1050" y="1090"/>
      <point x="1099" y="1107"/>
      <point x="1171" y="1119" type="curve" smooth="yes"/>
      <point x="1204" y="1124"/>
      <point x="1262" y="1140"/>
      <point x="1262" y="1157" type="curve" smooth="yes"/>
      <point x="1262" y="1162"/>
      <point x="1261" y="1169"/>
      <point x="1258" y="1176" type="curve"/>
      <point x="762" y="1176" type="line"/>
      <point x="759" y="1166"/>
      <point x="758" y="1160"/>
      <point x="758" y="1159" type="curve" smooth="yes"/>
      <point x="758" y="1154"/>
      <point x="759" y="1150"/>
      <point x="762" y="1148" type="curve" smooth="yes"/>
      <point x="821" y="1103"/>
      <point x="946" y="1109"/>
      <point x="946" y="1060" type="curve" smooth="yes"/>
      <point x="946" y="1053"/>
      <point x="944" y="1047"/>
      <point x="940" y="1040" type="curve" smooth="yes"/>
      <point x="726" y="630" type="line"/>
      <point x="496" y="1040" type="line"/>
      <point x="493" y="1047"/>
      <point x="491" y="1053"/>
      <point x="491" y="1059" type="curve" smooth="yes"/>
      <point x="491" y="1110"/>
      <point x="680" y="1118"/>
      <point x="680" y="1158" type="curve" smooth="yes"/>
      <point x="680" y="1163"/>
      <point x="679" y="1169"/>
      <point x="676" y="1176" type="curve"/>
      <point x="50" y="1176" type="line"/>
      <point x="47" y="1166"/>
      <point x="46" y="1160"/>
      <point x="46" y="1159" type="curve" smooth="yes"/>
      <point x="46" y="1146"/>
      <point x="241" y="1064"/>
      <point x="260" y="1030" type="curve" smooth="yes"/>
      <point x="540" y="530" type="line"/>
      <point x="540" y="487" type="line"/>
      <point x="463" y="487" type="line" smooth="yes"/>
      <point x="266" y="487"/>
      <point x="249" y="480"/>
      <point x="249" y="452" type="curve" smooth="yes"/>
      <point x="249" y="401"/>
      <point x="304" y="391"/>
      <point x="389" y="391" type="curve" smooth="yes"/>
      <point x="433" y="391"/>
      <point x="484" y="394"/>
      <point x="540" y="395" type="curve"/>
      <point x="540" y="303" type="line"/>
    </contour>
  </outline>
</glyph>
<glyph name="ordfeminine" format="1">
  <advance width="708"/>
  <unicode hex="00AA"/>
  <outline>
    <contour>
      <point x="439" y="688" type="line"/>
      <point x="399" y="654"/>
      <point x="343" y="619"/>
      <point x="289" y="619" type="curve" smooth="yes"/>
      <point x="243" y="619"/>
      <point x="205" y="643"/>
      <point x="205" y="693" type="curve" smooth="yes"/>
      <point x="205" y="804"/>
      <point x="356" y="827"/>
      <point x="439" y="855" type="curve"/>
    </contour>
    <contour>
      <point x="439" y="893" type="line"/>
      <point x="321" y="853"/>
      <point x="70" y="839"/>
      <point x="70" y="673" type="curve" smooth="yes"/>
      <point x="70" y="587"/>
      <point x="150" y="546"/>
      <point x="227" y="546" type="curve" smooth="yes"/>
      <point x="310" y="546"/>
      <point x="380" y="592"/>
      <point x="441" y="644" type="curve"/>
      <point x="445" y="592"/>
      <point x="476" y="546"/>
      <point x="532" y="546" type="curve" smooth="yes"/>
      <point x="578" y="546"/>
      <point x="637" y="560"/>
      <point x="662" y="602" type="curve"/>
      <point x="646" y="651" type="line"/>
      <point x="625" y="640"/>
      <point x="609" y="634"/>
      <point x="597" y="634" type="curve" smooth="yes"/>
      <point x="560" y="634"/>
      <point x="560" y="687"/>
      <point x="560" y="780" type="curve" smooth="yes"/>
      <point x="560" y="842"/>
      <point x="566" y="907"/>
      <point x="566" y="928" type="curve" smooth="yes"/>
      <point x="566" y="1095"/>
      <point x="518" y="1164"/>
      <point x="345" y="1164" type="curve" smooth="yes"/>
      <point x="258" y="1164"/>
      <point x="92" y="1129"/>
      <point x="92" y="1016" type="curve" smooth="yes"/>
      <point x="92" y="990"/>
      <point x="118" y="935"/>
      <point x="149" y="935" type="curve" smooth="yes"/>
      <point x="175" y="935"/>
      <point x="229" y="966"/>
      <point x="229" y="995" type="curve" smooth="yes"/>
      <point x="229" y="1017"/>
      <point x="205" y="1035"/>
      <point x="205" y="1058" type="curve" smooth="yes"/>
      <point x="205" y="1098"/>
      <point x="284" y="1117"/>
      <point x="314" y="1117" type="curve" smooth="yes"/>
      <point x="419" y="1117"/>
      <point x="439" y="1047"/>
      <point x="439" y="959" type="curve" smooth="yes"/>
    </contour>
  </outline>
</glyph>
<glyph name="macron" format="1">
  <advance width="772"/>
  <unicode hex="00AF"/>
  <outline>
    <contour>
      <point x="390" y="900" type="move" name="_top"/>
    </contour>
    <contour>
      <point x="691" y="1044" type="line"/>
      <point x="691" y="1172" type="line"/>
      <point x="89" y="1172" type="line"/>
      <point x="89" y="1044" type="line"/>
    </contour>
  </outline>
</glyph>
<glyph name="plusminus" format="1">
  <advance width="1099"/>
  <unicode hex="00B1"/>
  <outline>
    <contour>
      <point x="107" y="618" type="curve"/>
      <point x="107" y="567"/>
      <point x="111" y="533"/>
      <point x="159" y="505" type="curve"/>
      <point x="482" y="505" type="line"/>
      <point x="482" y="443"/>
      <point x="480" y="377"/>
      <point x="480" y="312" type="curve" smooth="yes"/>
      <point x="480" y="251"/>
      <point x="482" y="191"/>
      <point x="489" y="132" type="curve"/>
      <point x="509" y="130"/>
      <point x="528" y="129"/>
      <point x="548" y="129" type="curve" smooth="yes"/>
      <point x="568" y="129"/>
      <point x="587" y="130"/>
      <point x="607" y="132" type="curve"/>
      <point x="616" y="199"/>
      <point x="618" y="268"/>
      <point x="618" y="337" type="curve" smooth="yes"/>
      <point x="618" y="394"/>
      <point x="617" y="450"/>
      <point x="617" y="505" type="curve"/>
      <point x="679" y="505"/>
      <point x="745" y="503"/>
      <point x="810" y="503" type="curve" smooth="yes"/>
      <point x="871" y="503"/>
      <point x="931" y="505"/>
      <point x="990" y="512" type="curve"/>
      <point x="992" y="531"/>
      <point x="993" y="551"/>
      <point x="993" y="570" type="curve" smooth="yes"/>
      <point x="993" y="590"/>
      <point x="992" y="609"/>
      <point x="990" y="629" type="curve"/>
      <point x="923" y="638"/>
      <point x="854" y="640"/>
      <point x="785" y="640" type="curve" smooth="yes"/>
      <point x="728" y="640"/>
      <point x="672" y="639"/>
      <point x="617" y="639" type="curve"/>
      <point x="617" y="699"/>
      <point x="619" y="762"/>
      <point x="619" y="825" type="curve" smooth="yes"/>
      <point x="619" y="888"/>
      <point x="617" y="951"/>
      <point x="608" y="1012" type="curve"/>
      <point x="589" y="1015"/>
      <point x="569" y="1015"/>
      <point x="550" y="1015" type="curve" smooth="yes"/>
      <point x="530" y="1015"/>
      <point x="510" y="1014"/>
      <point x="490" y="1012" type="curve"/>
      <point x="482" y="954"/>
      <point x="480" y="892"/>
      <point x="480" y="831" type="curve" smooth="yes"/>
      <point x="480" y="766"/>
      <point x="482" y="701"/>
      <point x="482" y="639" type="curve"/>
      <point x="445" y="639"/>
      <point x="384" y="642"/>
      <point x="321" y="642" type="curve" smooth="yes"/>
      <point x="242" y="642"/>
      <point x="158" y="637"/>
    </contour>
  </outline>
</glyph>
<glyph name="paragraph" format="1">
  <advance width="1029"/>
  <unicode hex="00B6"/>
  <outline>
    <contour>
      <point x="835" y="1204" type="line"/>
      <point x="863" y="1251"/>
      <point x="973" y="1235"/>
      <point x="1005" y="1264" type="curve"/>
      <point x="1003" y="1303" type="line"/>
      <point x="535" y="1303" type="line" smooth="yes"/>
      <point x="286" y="1303"/>
      <point x="22" y="1233"/>
      <point x="22" y="935" type="curve" smooth="yes"/>
      <point x="22" y="642"/>
      <point x="264" y="577"/>
      <point x="512" y="577" type="curve"/>
      <point x="512" y="-112" type="line" smooth="yes"/>
      <point x="512" y="-155"/>
      <point x="313" y="-134"/>
      <point x="313" y="-158" type="curve" smooth="yes"/>
      <point x="313" y="-224" type="line"/>
      <point x="604" y="-224" type="line"/>
      <point x="604" y="1220" type="line"/>
      <point x="744" y="1220" type="line"/>
      <point x="744" y="-224" type="line"/>
      <point x="1005" y="-224" type="line"/>
      <point x="1005" y="-158" type="line" smooth="yes"/>
      <point x="1005" y="-134"/>
      <point x="836" y="-156"/>
      <point x="836" y="-112" type="curve" smooth="yes"/>
    </contour>
  </outline>
</glyph>
<glyph name="onehalf" format="1">
  <advance width="1831"/>
  <unicode hex="00BD"/>
  <outline>
    <contour>
      <point x="395" y="1295" type="line"/>
      <point x="384" y="1299"/>
      <point x="373" y="1301"/>
      <point x="361" y="1301" type="curve"/>
      <point x="284" y="1264"/>
      <point x="201" y="1244"/>
      <point x="116" y="1234" type="curve"/>
      <point x="116" y="1199" type="line"/>
      <point x="186" y="1169"/>
      <point x="244" y="1197"/>
      <point x="244" y="1084" type="curve" smooth="yes"/>
      <point x="244" y="663" type="line" smooth="yes"/>
      <point x="244" y="525"/>
      <point x="193" y="587"/>
      <point x="112" y="547" type="curve"/>
      <point x="114" y="512" type="line"/>
      <point x="523" y="512" type="line"/>
      <point x="525" y="548" type="line"/>
      <point x="517" y="560"/>
      <point x="486" y="558"/>
      <point x="473" y="559" type="curve" smooth="yes"/>
      <point x="395" y="564"/>
      <point x="394" y="622"/>
      <point x="394" y="685" type="curve" smooth="yes"/>
    </contour>
    <contour>
      <point x="1679" y="269" type="line"/>
      <point x="1635" y="269" type="line"/>
      <point x="1625" y="259"/>
      <point x="1620" y="247"/>
      <point x="1615" y="233" type="curve" smooth="yes"/>
      <point x="1584" y="152"/>
      <point x="1543" y="145"/>
      <point x="1462" y="145" type="curve" smooth="yes"/>
      <point x="1253" y="145" type="line"/>
      <point x="1372" y="262"/>
      <point x="1653" y="438"/>
      <point x="1653" y="621" type="curve" smooth="yes"/>
      <point x="1653" y="769"/>
      <point x="1524" y="842"/>
      <point x="1390" y="842" type="curve" smooth="yes"/>
      <point x="1266" y="842"/>
      <point x="1150" y="762"/>
      <point x="1109" y="654" type="curve"/>
      <point x="1152" y="636" type="line"/>
      <point x="1202" y="697"/>
      <point x="1281" y="761"/>
      <point x="1364" y="761" type="curve" smooth="yes"/>
      <point x="1444" y="761"/>
      <point x="1492" y="696"/>
      <point x="1492" y="620" type="curve" smooth="yes"/>
      <point x="1492" y="439"/>
      <point x="1223" y="217"/>
      <point x="1110" y="88" type="curve"/>
      <point x="1114" y="45" type="line"/>
      <point x="1165" y="46"/>
      <point x="1215" y="46"/>
      <point x="1266" y="46" type="curve" smooth="yes"/>
      <point x="1368" y="46"/>
      <point x="1470" y="45"/>
      <point x="1571" y="45" type="curve" smooth="yes"/>
      <point x="1636" y="45" type="line"/>
    </contour>
    <contour>
      <point x="543" y="-77" type="curve"/>
      <point x="709" y="153"/>
      <point x="803" y="440"/>
      <point x="937" y="691" type="curve" smooth="yes"/>
      <point x="1063" y="927"/>
      <point x="1207" y="1155"/>
      <point x="1343" y="1386" type="curve"/>
      <point x="1316" y="1403"/>
      <point x="1284" y="1410"/>
      <point x="1253" y="1410" type="curve"/>
      <point x="1145" y="1336"/>
      <point x="1085" y="1159"/>
      <point x="1024" y="1045" type="curve" smooth="yes"/>
      <point x="515" y="91" type="line" smooth="yes"/>
      <point x="486" y="37"/>
      <point x="475" y="-24"/>
      <point x="456" y="-81" type="curve"/>
      <point x="489" y="-81" type="line" smooth="yes"/>
      <point x="507" y="-81"/>
      <point x="525" y="-81"/>
    </contour>
  </outline>
</glyph>
<glyph name="divide" format="1">
  <advance width="1262"/>
  <unicode hex="00F7"/>
  <outline>
    <contour>
      <point x="630" y="888" type="curve" smooth="yes"/>
      <point x="697" y="888"/>
      <point x="752" y="944"/>
      <point x="752" y="1006" type="curve" smooth="yes"/>
      <point x="752" y="1069"/>
      <point x="697" y="1126"/>
      <point x="630" y="1126" type="curve" smooth="yes"/>
      <point x="564" y="1126"/>
      <point x="510" y="1069"/>
      <point x="510" y="1006" type="curve" smooth="yes"/>
      <point x="510" y="941"/>
      <point x="564" y="888"/>
    </contour>
    <contour>
      <point x="630" y="125" type="curve" smooth="yes"/>
      <point x="697" y="125"/>
      <point x="752" y="180"/>
      <point x="752" y="243" type="curve" smooth="yes"/>
      <point x="752" y="306"/>
      <point x="697" y="362"/>
      <point x="630" y="362" type="curve" smooth="yes"/>
      <point x="564" y="362"/>
      <point x="510" y="306"/>
      <point x="510" y="243" type="curve" smooth="yes"/>
      <point x="510" y="178"/>
      <point x="564" y="125"/>
    </contour>
    <contour>
      <point x="138" y="699" type="curve"/>
      <point x="130" y="669"/>
      <point x="106" y="636"/>
      <point x="106" y="579" type="curve"/>
      <point x="141" y="550"/>
      <point x="193" y="548"/>
      <point x="243" y="548" type="curve" smooth="yes"/>
      <point x="543" y="548"/>
      <point x="832" y="551"/>
      <point x="1123" y="551" type="curve"/>
      <point x="1153" y="581"/>
      <point x="1155" y="625"/>
      <point x="1155" y="669" type="curve"/>
      <point x="1120" y="684"/>
      <point x="1080" y="700"/>
      <point x="1018" y="700" type="curve" smooth="yes"/>
      <point x="711" y="700"/>
      <point x="424" y="699"/>
    </contour>
  </outline>
</glyph>
<glyph name="thorn" format="1">
  <advance width="1130"/>
  <unicode hex="00FE"/>
  <outline>
    <contour>
      <point x="352" y="677" type="line"/>
      <point x="416" y="739"/>
      <point x="501" y="796"/>
      <point x="594" y="796" type="curve" smooth="yes"/>
      <point x="724" y="796"/>
      <point x="862" y="693"/>
      <point x="862" y="423" type="curve" smooth="yes"/>
      <point x="862" y="205"/>
      <point x="770" y="66"/>
      <point x="605" y="66" type="curve" smooth="yes"/>
      <point x="392" y="66"/>
      <point x="352" y="181"/>
      <point x="352" y="339" type="curve" smooth="yes"/>
    </contour>
    <contour>
      <point x="352" y="35" type="line"/>
      <point x="423" y="2"/>
      <point x="502" y="-18"/>
      <point x="592" y="-18" type="curve" smooth="yes"/>
      <point x="839" y="-18"/>
      <point x="1048" y="166"/>
      <point x="1048" y="481" type="curve" smooth="yes"/>
      <point x="1048" y="742"/>
      <point x="879" y="926"/>
      <point x="668" y="926" type="curve" smooth="yes"/>
      <point x="537" y="926"/>
      <point x="435" y="855"/>
      <point x="352" y="764" type="curve"/>
      <point x="352" y="1376" type="line"/>
      <point x="280" y="1369" type="line"/>
      <point x="187" y="1342"/>
      <point x="94" y="1316"/>
      <point x="1" y="1290" type="curve"/>
      <point x="-1" y="1279"/>
      <point x="-1" y="1267"/>
      <point x="-1" y="1256" type="curve"/>
      <point x="26" y="1227"/>
      <point x="138" y="1210"/>
      <point x="166" y="1165" type="curve"/>
      <point x="166" y="-146" type="line" smooth="yes"/>
      <point x="166" y="-187"/>
      <point x="158" y="-224"/>
      <point x="144" y="-255" type="curve"/>
      <point x="130" y="-311"/>
      <point x="34" y="-306"/>
      <point x="5" y="-328" type="curve"/>
      <point x="5" y="-344"/>
      <point x="6" y="-360"/>
      <point x="8" y="-378" type="curve"/>
      <point x="534" y="-378" type="line"/>
      <point x="535" y="-360"/>
      <point x="536" y="-344"/>
      <point x="536" y="-328" type="curve"/>
      <point x="491" y="-304"/>
      <point x="378" y="-311"/>
      <point x="363" y="-242" type="curve"/>
      <point x="355" y="-215"/>
      <point x="352" y="-183"/>
      <point x="352" y="-144" type="curve" smooth="yes"/>
    </contour>
  </outline>
</glyph>
<glyph name="Gcommaaccent" format="1">
  <advance width="1579"/>
  <unicode hex="0122"/>
  <outline>
    <contour>
      <point x="674" y="-276" type="curve" smooth="yes"/>
      <point x="674" y="-357"/>
      <point x="731" y="-424"/>
      <point x="840" y="-424" type="curve"/>
      <point x="840" y="-552"/>
      <point x="715" y="-525"/>
      <point x="715" y="-577" type="curve" smooth="yes"/>
      <point x="715" y="-608"/>
      <point x="734" y="-615"/>
      <point x="757" y="-615" type="curve" smooth="yes"/>
      <point x="841" y="-615"/>
      <point x="993" y="-531"/>
      <point x="993" y="-350" type="curve" smooth="yes"/>
      <point x="993" y="-176"/>
      <point x="912" y="-128"/>
      <point x="827" y="-128" type="curve" smooth="yes"/>
      <point x="735" y="-128"/>
      <point x="674" y="-200"/>
    </contour>
    <contour>
      <point x="1386" y="463" type="line" smooth="yes"/>
      <point x="1386" y="587"/>
      <point x="1472" y="601"/>
      <point x="1554" y="632" type="curve"/>
      <point x="1554" y="648"/>
      <point x="1552" y="684"/>
      <point x="1552" y="684" type="curve"/>
      <point x="952" y="684" type="line"/>
      <point x="952" y="684"/>
      <point x="950" y="649"/>
      <point x="950" y="632" type="curve"/>
      <point x="1004" y="609"/>
      <point x="1114" y="621"/>
      <point x="1138" y="553" type="curve" smooth="yes"/>
      <point x="1158" y="498"/>
      <point x="1166" y="439"/>
      <point x="1166" y="381" type="curve" smooth="yes"/>
      <point x="1166" y="277"/>
      <point x="1162" y="195"/>
      <point x="1154" y="127" type="curve"/>
      <point x="1075" y="78"/>
      <point x="994" y="62"/>
      <point x="887" y="62" type="curve" smooth="yes"/>
      <point x="568" y="62"/>
      <point x="351" y="322"/>
      <point x="351" y="675" type="curve" smooth="yes"/>
      <point x="351" y="1003"/>
      <point x="572" y="1250"/>
      <point x="881" y="1250" type="curve" smooth="yes"/>
      <point x="1008" y="1250"/>
      <point x="1127" y="1211"/>
      <point x="1220" y="1100" type="curve" smooth="yes"/>
      <point x="1252" y="1062"/>
      <point x="1281" y="974"/>
      <point x="1318" y="942" type="curve"/>
      <point x="1335" y="942"/>
      <point x="1355" y="943"/>
      <point x="1376" y="945" type="curve"/>
      <point x="1346" y="1247" type="line"/>
      <point x="1182" y="1305"/>
      <point x="1065" y="1327"/>
      <point x="907" y="1327" type="curve" smooth="yes"/>
      <point x="478" y="1327"/>
      <point x="112" y="1055"/>
      <point x="112" y="638" type="curve" smooth="yes"/>
      <point x="112" y="237"/>
      <point x="414" y="-26"/>
      <point x="870" y="-26" type="curve" smooth="yes"/>
      <point x="1061" y="-26"/>
      <point x="1252" y="25"/>
      <point x="1386" y="95" type="curve"/>
    </contour>
  </outline>
</glyph>
<glyph name="gcommaaccent" format="1">
  <advance width="965"/>
  <unicode hex="0123"/>
  <outline>
    <contour>
      <point x="560" y="1" type="line" smooth="yes"/>
      <point x="730" y="-1"/>
      <point x="803" y="-48"/>
      <point x="803" y="-118" type="curve" smooth="yes"/>
      <point x="803" y="-223"/>
      <point x="602" y="-268"/>
      <point x="468" y="-268" type="curve" smooth="yes"/>
      <point x="385" y="-268"/>
      <point x="206" y="-242"/>
      <point x="206" y="-137" type="curve" smooth="yes"/>
      <point x="206" y="-94"/>
      <point x="233" y="-45"/>
      <point x="303" y="15" type="curve"/>
      <point x="366" y="8"/>
      <point x="423" y="3"/>
      <point x="481" y="2" type="curve" smooth="yes"/>
    </contour>
    <contour>
      <point x="288" y="634" type="curve" smooth="yes"/>
      <point x="288" y="764"/>
      <point x="359" y="852"/>
      <point x="449" y="852" type="curve" smooth="yes"/>
      <point x="554" y="852"/>
      <point x="637" y="763"/>
      <point x="637" y="597" type="curve" smooth="yes"/>
      <point x="637" y="466"/>
      <point x="589" y="374"/>
      <point x="477" y="374" type="curve" smooth="yes"/>
      <point x="346" y="374"/>
      <point x="288" y="491"/>
    </contour>
    <contour>
      <point x="941" y="888" type="line"/>
      <point x="941" y="888"/>
      <point x="917" y="892"/>
      <point x="894" y="892" type="curve" smooth="yes"/>
      <point x="803" y="892"/>
      <point x="677" y="873"/>
      <point x="677" y="873" type="curve"/>
      <point x="614" y="906"/>
      <point x="542" y="926"/>
      <point x="457" y="926" type="curve" smooth="yes"/>
      <point x="256" y="926"/>
      <point x="110" y="796"/>
      <point x="110" y="613" type="curve" smooth="yes"/>
      <point x="110" y="498"/>
      <point x="172" y="410"/>
      <point x="275" y="352" type="curve"/>
      <point x="180" y="297"/>
      <point x="110" y="239"/>
      <point x="110" y="163" type="curve" smooth="yes"/>
      <point x="110" y="103"/>
      <point x="156" y="54"/>
      <point x="229" y="24" type="curve"/>
      <point x="119" y="-57"/>
      <point x="76" y="-128"/>
      <point x="76" y="-184" type="curve" smooth="yes"/>
      <point x="76" y="-263"/>
      <point x="204" y="-351"/>
      <point x="442" y="-351" type="curve" smooth="yes"/>
      <point x="711" y="-351"/>
      <point x="939" y="-238"/>
      <point x="939" y="-52" type="curve" smooth="yes"/>
      <point x="939" y="87"/>
      <point x="817" y="159"/>
      <point x="656" y="171" type="curve" smooth="yes"/>
      <point x="404" y="189"/>
      <point x="259" y="174"/>
      <point x="259" y="243" type="curve" smooth="yes"/>
      <point x="259" y="292"/>
      <point x="299" y="302"/>
      <point x="330" y="326" type="curve"/>
      <point x="382" y="314"/>
      <point x="420" y="308"/>
      <point x="458" y="308" type="curve" smooth="yes"/>
      <point x="630" y="308"/>
      <point x="812" y="415"/>
      <point x="812" y="626" type="curve" smooth="yes"/>
      <point x="812" y="714"/>
      <point x="733" y="803"/>
      <point x="733" y="803" type="curve"/>
      <point x="733" y="803"/>
      <point x="873" y="777"/>
      <point x="926" y="761" type="curve"/>
    </contour>
    <contour>
      <point x="617" y="1595" type="curve"/>
      <point x="444" y="1564"/>
      <point x="345" y="1410"/>
      <point x="345" y="1266" type="curve" smooth="yes"/>
      <point x="345" y="1145"/>
      <point x="418" y="1060"/>
      <point x="526" y="1060" type="curve" smooth="yes"/>
      <point x="609" y="1060"/>
      <point x="665" y="1116"/>
      <point x="665" y="1190" type="curve" smooth="yes"/>
      <point x="665" y="1252"/>
      <point x="631" y="1290"/>
      <point x="560" y="1303" type="curve" smooth="yes"/>
      <point x="519" y="1310"/>
      <point x="493" y="1329"/>
      <point x="474" y="1356" type="curve"/>
      <point x="474" y="1460"/>
      <point x="569" y="1491"/>
      <point x="653" y="1539" type="curve"/>
      <point x="647" y="1565"/>
      <point x="633" y="1582"/>
    </contour>
  </outline>
</glyph>
<glyph name="kgreenlandic" format="1">
  <advance width="1140"/>
  <unicode hex="0138"/>
  <outline>
    <contour>
      <point x="213" y="120" type="line" smooth="yes"/>
      <point x="213" y="44"/>
      <point x="40" y="55"/>
      <point x="40" y="12" type="curve" smooth="yes"/>
      <point x="40" y="9"/>
      <point x="40" y="7"/>
      <point x="43" y="0" type="curve"/>
      <point x="567" y="0" type="line"/>
      <point x="570" y="7"/>
      <point x="571" y="11"/>
      <point x="571" y="14" type="curve" smooth="yes"/>
      <point x="571" y="60"/>
      <point x="419" y="32"/>
      <point x="419" y="116" type="curve" smooth="yes"/>
      <point x="419" y="420" type="line"/>
      <point x="484" y="420" type="line"/>
      <point x="734" y="97" type="line"/>
      <point x="745" y="85"/>
      <point x="747" y="77"/>
      <point x="747" y="74" type="curve" smooth="yes"/>
      <point x="747" y="24"/>
      <point x="630" y="49"/>
      <point x="630" y="12" type="curve" smooth="yes"/>
      <point x="630" y="10"/>
      <point x="632" y="6"/>
      <point x="635" y="0" type="curve"/>
      <point x="1130" y="0" type="line"/>
      <point x="1133" y="4"/>
      <point x="1133" y="9"/>
      <point x="1133" y="13" type="curve" smooth="yes"/>
      <point x="1133" y="41"/>
      <point x="985" y="62"/>
      <point x="957" y="94" type="curve"/>
      <point x="623" y="522" type="line"/>
      <point x="919" y="806" type="line" smooth="yes"/>
      <point x="938" y="822"/>
      <point x="972" y="838"/>
      <point x="1021" y="849" type="curve" smooth="yes"/>
      <point x="1074" y="860"/>
      <point x="1104" y="872"/>
      <point x="1104" y="887" type="curve"/>
      <point x="1101" y="900" type="line"/>
      <point x="707" y="900" type="line"/>
      <point x="705" y="895"/>
      <point x="704" y="890"/>
      <point x="704" y="887" type="curve" smooth="yes"/>
      <point x="704" y="845"/>
      <point x="833" y="884"/>
      <point x="833" y="821" type="curve" smooth="yes"/>
      <point x="833" y="819"/>
      <point x="833" y="815"/>
      <point x="831" y="810" type="curve"/>
      <point x="481" y="475" type="line"/>
      <point x="419" y="475" type="line"/>
      <point x="419" y="784" type="line" smooth="yes"/>
      <point x="419" y="868"/>
      <point x="571" y="839"/>
      <point x="571" y="886" type="curve" smooth="yes"/>
      <point x="571" y="889"/>
      <point x="570" y="893"/>
      <point x="567" y="900" type="curve"/>
      <point x="43" y="900" type="line"/>
      <point x="40" y="893"/>
      <point x="40" y="891"/>
      <point x="40" y="888" type="curve" smooth="yes"/>
      <point x="40" y="845"/>
      <point x="213" y="856"/>
      <point x="213" y="780" type="curve" smooth="yes"/>
    </contour>
  </outline>
</glyph>
<glyph name="Tbar" format="1">
  <advance width="1180"/>
  <unicode hex="0166"/>
  <outline>
    <contour>
      <point x="40" y="872" type="line"/>
      <point x="49" y="869"/>
      <point x="54" y="868"/>
      <point x="57" y="868" type="curve" smooth="yes"/>
      <point x="78" y="868"/>
      <point x="100" y="924"/>
      <point x="116" y="969" type="curve" smooth="yes"/>
      <point x="145" y="1053"/>
      <point x="173" y="1110"/>
      <point x="239" y="1112" type="curve" smooth="yes"/>
      <point x="470" y="1120" type="line"/>
      <point x="470" y="699" type="line"/>
      <point x="256" y="699" type="line"/>
      <point x="256" y="627" type="line"/>
      <point x="470" y="627" type="line"/>
      <point x="470" y="130" type="line" smooth="yes"/>
      <point x="470" y="12"/>
      <point x="241" y="85"/>
      <point x="241" y="18" type="curve" smooth="yes"/>
      <point x="241" y="11"/>
      <point x="242" y="5"/>
      <point x="245" y="0" type="curve"/>
      <point x="915" y="0" type="line"/>
      <point x="918" y="9"/>
      <point x="919" y="14"/>
      <point x="919" y="17" type="curve" smooth="yes"/>
      <point x="919" y="78"/>
      <point x="685" y="21"/>
      <point x="685" y="124" type="curve" smooth="yes"/>
      <point x="685" y="627" type="line"/>
      <point x="888" y="627" type="line"/>
      <point x="888" y="699" type="line"/>
      <point x="685" y="699" type="line"/>
      <point x="685" y="1120" type="line"/>
      <point x="958" y="1112" type="line"/>
      <point x="1023" y="1109"/>
      <point x="1046" y="1057"/>
      <point x="1073" y="969" type="curve" smooth="yes"/>
      <point x="1086" y="925"/>
      <point x="1109" y="868"/>
      <point x="1127" y="868" type="curve" smooth="yes"/>
      <point x="1133" y="868"/>
      <point x="1139" y="869"/>
      <point x="1145" y="872" type="curve"/>
      <point x="1100" y="1193" type="line"/>
      <point x="1072" y="1193" type="line" smooth="yes"/>
      <point x="1056" y="1193"/>
      <point x="1006" y="1179"/>
      <point x="979" y="1179" type="curve" smooth="yes"/>
      <point x="225" y="1173" type="line"/>
      <point x="181" y="1180"/>
      <point x="150" y="1191"/>
      <point x="109" y="1191" type="curve" smooth="yes"/>
      <point x="103" y="1191"/>
      <point x="87" y="1189"/>
      <point x="73" y="1189" type="curve"/>
    </contour>
  </outline>
</glyph>
<glyph name="tbar" format="1">
  <advance width="656"/>
  <unicode hex="0167"/>
  <outline>
    <contour>
      <point x="623" y="815" type="line"/>
      <point x="623" y="899" type="line"/>
      <point x="372" y="899" type="line"/>
      <point x="372" y="1110" type="line" smooth="yes"/>
      <point x="372" y="1139"/>
      <point x="361" y="1149"/>
      <point x="349" y="1149" type="curve" smooth="yes"/>
      <point x="338" y="1149"/>
      <point x="326" y="1141"/>
      <point x="322" y="1134" type="curve" smooth="yes"/>
      <point x="248" y="1021"/>
      <point x="198" y="923"/>
      <point x="38" y="859" type="curve"/>
      <point x="38" y="815" type="line"/>
      <point x="187" y="815" type="line"/>
      <point x="187" y="530" type="line"/>
      <point x="28" y="530" type="line"/>
      <point x="28" y="402" type="line"/>
      <point x="187" y="402" type="line"/>
      <point x="187" y="317" type="line" smooth="yes"/>
      <point x="187" y="66"/>
      <point x="234" y="-20"/>
      <point x="426" y="-20" type="curve" smooth="yes"/>
      <point x="544" y="-20"/>
      <point x="615" y="17"/>
      <point x="654" y="35" type="curve"/>
      <point x="646" y="108" type="line"/>
      <point x="623" y="101"/>
      <point x="564" y="86"/>
      <point x="506" y="86" type="curve" smooth="yes"/>
      <point x="378" y="86"/>
      <point x="374" y="135"/>
      <point x="374" y="314" type="curve" smooth="yes"/>
      <point x="374" y="402" type="line"/>
      <point x="630" y="402" type="line"/>
      <point x="630" y="530" type="line"/>
      <point x="374" y="530" type="line"/>
      <point x="374" y="815" type="line"/>
    </contour>
  </outline>
</glyph>
<glyph name="Dzcaron" format="1">
  <advance width="2499"/>
  <unicode hex="01C5"/>
  <outline>
    <contour>
      <point x="2126" y="1048" type="curve"/>
      <point x="2192" y="1167"/>
      <point x="2268" y="1287"/>
      <point x="2319" y="1414" type="curve"/>
      <point x="2312" y="1425"/>
      <point x="2295" y="1427"/>
      <point x="2283" y="1427" type="curve"/>
      <point x="2211" y="1381"/>
      <point x="2111" y="1245"/>
      <point x="2054" y="1176" type="curve"/>
      <point x="1997" y="1237"/>
      <point x="1872" y="1390"/>
      <point x="1800" y="1427" type="curve"/>
      <point x="1788" y="1427"/>
      <point x="1771" y="1425"/>
      <point x="1764" y="1414" type="curve"/>
      <point x="1795" y="1337"/>
      <point x="1931" y="1076"/>
      <point x="1989" y="1028" type="curve"/>
      <point x="2035" y="1028"/>
      <point x="2081" y="1036"/>
    </contour>
    <contour>
      <point x="2430" y="840" type="line"/>
      <point x="2430" y="895" type="line"/>
      <point x="2429" y="895"/>
      <point x="2394" y="898"/>
      <point x="2375" y="899" type="curve"/>
      <point x="1874" y="899" type="line" smooth="yes"/>
      <point x="1832" y="899"/>
      <point x="1776" y="899"/>
      <point x="1707" y="925" type="curve"/>
      <point x="1686" y="664" type="line"/>
      <point x="1731" y="662" type="line"/>
      <point x="1794" y="707"/>
      <point x="1830" y="818"/>
      <point x="1920" y="829" type="curve"/>
      <point x="1958" y="838"/>
      <point x="2001" y="838"/>
      <point x="2045" y="838" type="curve" smooth="yes"/>
      <point x="2214" y="838" type="line"/>
      <point x="1637" y="33" type="line"/>
      <point x="1651" y="0" type="line"/>
      <point x="2259" y="0" type="line" smooth="yes"/>
      <point x="2293" y="0"/>
      <point x="2418" y="-11"/>
      <point x="2418" y="-11" type="curve"/>
      <point x="2447" y="277" type="line"/>
      <point x="2430" y="277"/>
      <point x="2413" y="279"/>
      <point x="2396" y="279" type="curve"/>
      <point x="2349" y="232"/>
      <point x="2327" y="109"/>
      <point x="2250" y="86" type="curve" smooth="yes"/>
      <point x="2199" y="71"/>
      <point x="2144" y="60"/>
      <point x="2079" y="60" type="curve" smooth="yes"/>
      <point x="1885" y="60" type="line"/>
    </contour>
    <contour>
      <point x="675" y="1225" type="line" smooth="yes"/>
      <point x="1094" y="1225"/>
      <point x="1274" y="954"/>
      <point x="1274" y="609" type="curve" smooth="yes"/>
      <point x="1274" y="352"/>
      <point x="1116" y="77"/>
      <point x="770" y="77" type="curve" smooth="yes"/>
      <point x="733" y="77"/>
      <point x="692" y="78"/>
      <point x="655" y="80" type="curve" smooth="yes"/>
      <point x="540" y="85"/>
      <point x="507" y="166"/>
      <point x="507" y="271" type="curve" smooth="yes"/>
      <point x="507" y="1225" type="line"/>
    </contour>
    <contour>
      <point x="292" y="219" type="line" smooth="yes"/>
      <point x="292" y="81"/>
      <point x="165" y="81"/>
      <point x="68" y="52" type="curve"/>
      <point x="70" y="0" type="line"/>
      <point x="789" y="0" type="line" smooth="yes"/>
      <point x="1267" y="0"/>
      <point x="1512" y="321"/>
      <point x="1512" y="658" type="curve" smooth="yes"/>
      <point x="1512" y="1130"/>
      <point x="1138" y="1302"/>
      <point x="662" y="1302" type="curve" smooth="yes"/>
      <point x="70" y="1302" type="line"/>
      <point x="68" y="1251" type="line"/>
      <point x="140" y="1226"/>
      <point x="267" y="1212"/>
      <point x="282" y="1131" type="curve" smooth="yes"/>
      <point x="288" y="1094"/>
      <point x="292" y="1053"/>
      <point x="292" y="1010" type="curve" smooth="yes"/>
    </contour>
  </outline>
</glyph>
<glyph name="ogonek" format="1">
  <advance width="691"/>
  <unicode hex="02DB"/>
  <outline>
    <contour>
      <point x="171" y="-188" type="curve" smooth="yes"/>
      <point x="171" y="-307"/>
      <point x="273" y="-371"/>
      <point x="383" y="-371" type="curve" smooth="yes"/>
      <point x="459" y="-371"/>
      <point x="509" y="-350"/>
      <point x="575" y="-314" type="curve"/>
      <point x="564" y="-234" type="line"/>
      <point x="528" y="-250"/>
      <point x="490" y="-264"/>
      <point x="450" y="-264" type="curve" smooth="yes"/>
      <point x="378" y="-264"/>
      <point x="303" y="-225"/>
      <point x="303" y="-145" type="curve" smooth="yes"/>
      <point x="303" y="-65"/>
      <point x="358" y="-42"/>
      <point x="375" y="23" type="curve"/>
      <point x="264" y="3"/>
      <point x="171" y="-63"/>
    </contour>
  </outline>
</glyph>
<glyph name="hungarumlaut" format="1">
  <advance width="968"/>
  <unicode hex="02DD"/>
  <outline>
    <contour>
      <point x="506" y="900" type="move" name="_top"/>
    </contour>
    <contour>
      <point x="941" y="1367" type="curve"/>
      <point x="895" y="1391"/>
      <point x="842" y="1409"/>
      <point x="790" y="1409" type="curve"/>
      <point x="763" y="1377"/>
      <point x="640" y="1025"/>
      <point x="636" y="997" type="curve"/>
      <point x="643" y="986"/>
      <point x="657" y="981"/>
      <point x="670" y="981" type="curve"/>
      <point x="699" y="1005"/>
      <point x="919" y="1321"/>
    </contour>
    <contour>
      <point x="637" y="1366" type="curve"/>
      <point x="592" y="1392"/>
      <point x="538" y="1409"/>
      <point x="486" y="1409" type="curve"/>
      <point x="449" y="1360"/>
      <point x="320" y="1043"/>
      <point x="312" y="995" type="curve"/>
      <point x="320" y="985"/>
      <point x="332" y="981"/>
      <point x="344" y="981" type="curve"/>
      <point x="384" y="1015"/>
      <point x="614" y="1319"/>
    </contour>
  </outline>
</glyph>
<glyph name="uni0326" format="1">
  <advance width="734"/>
  <unicode hex="0326"/>
  <outline>
    <contour>
      <point x="207" y="-238" type="curve" smooth="yes"/>
      <point x="207" y="-319"/>
      <point x="264" y="-386"/>
      <point x="373" y="-386" type="curve"/>
      <point x="373" y="-514"/>
      <point x="248" y="-487"/>
      <point x="248" y="-539" type="curve" smooth="yes"/>
      <point x="248" y="-570"/>
      <point x="267" y="-577"/>
      <point x="290" y="-577" type="curve" smooth="yes"/>
      <point x="374" y="-577"/>
      <point x="526" y="-493"/>
      <point x="526" y="-312" type="curve" smooth="yes"/>
      <point x="526" y="-138"/>
      <point x="445" y="-90"/>
      <point x="360" y="-90" type="curve" smooth="yes"/>
      <point x="268" y="-90"/>
      <point x="207" y="-162"/>
    </contour>
  </outline>
</glyph>
<glyph name="bullet" format="1">
  <advance width="736"/>
  <unicode hex="2022"/>
  <outline>
    <contour>
      <point x="366" y="852" type="curve" smooth="yes"/>
      <point x="209" y="852"/>
      <point x="109" y="729"/>
      <point x="109" y="589" type="curve" smooth="yes"/>
      <point x="109" y="446"/>
      <point x="213" y="315"/>
      <point x="372" y="315" type="curve" smooth="yes"/>
      <point x="529" y="315"/>
      <point x="628" y="435"/>
      <point x="628" y="573" type="curve" smooth="yes"/>
      <point x="628" y="719"/>
      <point x="521" y="852"/>
    </contour>
  </outline>
</glyph>
<glyph name="guilsinglright" format="1">
  <advance width="539"/>
  <unicode hex="203A"/>
  <outline>
    <contour>
      <point x="87" y="110" type="curve"/>
      <point x="98" y="97"/>
      <point x="110" y="88"/>
      <point x="128" y="88" type="curve"/>
      <point x="155" y="107"/>
      <point x="175" y="131"/>
      <point x="195" y="157" type="curve" smooth="yes"/>
      <point x="482" y="532" type="line"/>
      <point x="367" y="676"/>
      <point x="259" y="837"/>
      <point x="132" y="972" type="curve"/>
      <point x="111" y="972"/>
      <point x="91" y="964"/>
      <point x="79" y="946" type="curve"/>
      <point x="121" y="811"/>
      <point x="235" y="648"/>
      <point x="300" y="532" type="curve"/>
      <point x="235" y="411"/>
      <point x="124" y="249"/>
    </contour>
  </outline>
</glyph>
<glyph name="Euro" format="1">
  <advance width="1179"/>
  <unicode hex="20AC"/>
  <outline>
    <contour>
      <point x="838" y="549" type="curve"/>
      <point x="765" y="564"/>
      <point x="681" y="570"/>
      <point x="562" y="570" type="curve" smooth="yes"/>
      <point x="386" y="570" type="line"/>
      <point x="384" y="599"/>
      <point x="383" y="629"/>
      <point x="383" y="658" type="curve" smooth="yes"/>
      <point x="383" y="699" type="line"/>
      <point x="791" y="699" type="line"/>
      <point x="843" y="716"/>
      <point x="857" y="734"/>
      <point x="862" y="767" type="curve"/>
      <point x="784" y="782"/>
      <point x="695" y="789"/>
      <point x="572" y="789" type="curve" smooth="yes"/>
      <point x="389" y="789" type="line"/>
      <point x="415" y="1053"/>
      <point x="523" y="1213"/>
      <point x="675" y="1213" type="curve" smooth="yes"/>
      <point x="802" y="1213"/>
      <point x="897" y="1120"/>
      <point x="954" y="940" type="curve"/>
      <point x="1078" y="940" type="line"/>
      <point x="1060" y="1022"/>
      <point x="1037" y="1102"/>
      <point x="1010" y="1177" type="curve"/>
      <point x="909" y="1248"/>
      <point x="805" y="1289"/>
      <point x="694" y="1289" type="curve" smooth="yes"/>
      <point x="406" y="1289"/>
      <point x="240" y="1056"/>
      <point x="193" y="789" type="curve"/>
      <point x="146" y="789" type="line" smooth="yes"/>
      <point x="78" y="789"/>
      <point x="56" y="783"/>
      <point x="56" y="757" type="curve" smooth="yes"/>
      <point x="56" y="731"/>
      <point x="67" y="714"/>
      <point x="105" y="699" type="curve"/>
      <point x="181" y="699" type="line"/>
      <point x="179" y="677"/>
      <point x="179" y="653"/>
      <point x="179" y="631" type="curve" smooth="yes"/>
      <point x="179" y="611"/>
      <point x="180" y="590"/>
      <point x="181" y="570" type="curve"/>
      <point x="113" y="570" type="line"/>
      <point x="64" y="554"/>
      <point x="50" y="532"/>
      <point x="47" y="501" type="curve"/>
      <point x="59" y="483"/>
      <point x="82" y="480"/>
      <point x="141" y="480" type="curve" smooth="yes"/>
      <point x="193" y="480" type="line"/>
      <point x="239" y="192"/>
      <point x="424" y="-21"/>
      <point x="698" y="-21" type="curve" smooth="yes"/>
      <point x="900" y="-21"/>
      <point x="1035" y="105"/>
      <point x="1084" y="209" type="curve"/>
      <point x="968" y="241" type="line"/>
      <point x="933" y="161"/>
      <point x="838" y="63"/>
      <point x="711" y="63" type="curve" smooth="yes"/>
      <point x="535" y="63"/>
      <point x="429" y="244"/>
      <point x="395" y="480" type="curve"/>
      <point x="767" y="480" type="line"/>
      <point x="819" y="497"/>
      <point x="834" y="515"/>
    </contour>
  </outline>
</glyph>
<glyph name="trademark" format="1">
  <advance width="1936"/>
  <unicode hex="2122"/>
  <outline>
    <contour>
      <point x="824" y="1289" type="line"/>
      <point x="823" y="1264" type="line"/>
      <point x="924" y="1225"/>
      <point x="943" y="1268"/>
      <point x="943" y="1146" type="curve" smooth="yes"/>
      <point x="943" y="685" type="line" smooth="yes"/>
      <point x="943" y="537"/>
      <point x="918" y="594"/>
      <point x="817" y="552" type="curve"/>
      <point x="818" y="528" type="line"/>
      <point x="1120" y="528" type="line"/>
      <point x="1121" y="552" type="line"/>
      <point x="1031" y="583"/>
      <point x="995" y="546"/>
      <point x="995" y="683" type="curve" smooth="yes"/>
      <point x="995" y="1132" type="line"/>
      <point x="999" y="1132" type="line"/>
      <point x="1291" y="528" type="line"/>
      <point x="1324" y="528" type="line"/>
      <point x="1609" y="1171" type="line"/>
      <point x="1609" y="670" type="line" smooth="yes"/>
      <point x="1609" y="539"/>
      <point x="1582" y="592"/>
      <point x="1488" y="552" type="curve"/>
      <point x="1489" y="528" type="line"/>
      <point x="1878" y="528" type="line"/>
      <point x="1879" y="552" type="line"/>
      <point x="1843" y="567"/>
      <point x="1770" y="557"/>
      <point x="1762" y="607" type="curve" smooth="yes"/>
      <point x="1751" y="673"/>
      <point x="1748" y="766"/>
      <point x="1748" y="861" type="curve" smooth="yes"/>
      <point x="1748" y="960"/>
      <point x="1751" y="1061"/>
      <point x="1751" y="1136" type="curve" smooth="yes"/>
      <point x="1751" y="1274"/>
      <point x="1773" y="1226"/>
      <point x="1871" y="1264" type="curve"/>
      <point x="1870" y="1289" type="line"/>
      <point x="1605" y="1289" type="line"/>
      <point x="1356" y="719" type="line"/>
      <point x="1081" y="1289" type="line"/>
    </contour>
    <contour>
      <point x="46" y="1097" type="line"/>
      <point x="69" y="1096" type="line"/>
      <point x="97" y="1185"/>
      <point x="166" y="1242"/>
      <point x="260" y="1242" type="curve" smooth="yes"/>
      <point x="284" y="1242"/>
      <point x="307" y="1241"/>
      <point x="328" y="1241" type="curve"/>
      <point x="328" y="684" type="line" smooth="yes"/>
      <point x="328" y="523"/>
      <point x="296" y="605"/>
      <point x="211" y="552" type="curve"/>
      <point x="211" y="528" type="line"/>
      <point x="597" y="528" type="line"/>
      <point x="598" y="552" type="line"/>
      <point x="507" y="601"/>
      <point x="481" y="527"/>
      <point x="481" y="683" type="curve" smooth="yes"/>
      <point x="481" y="1241" type="line"/>
      <point x="545" y="1241" type="line" smooth="yes"/>
      <point x="693" y="1241"/>
      <point x="681" y="1216"/>
      <point x="745" y="1096" type="curve"/>
      <point x="768" y="1097" type="line"/>
      <point x="744" y="1301" type="line"/>
      <point x="662" y="1290" type="line"/>
      <point x="157" y="1290" type="line" smooth="yes"/>
      <point x="144" y="1290"/>
      <point x="100" y="1301"/>
      <point x="66" y="1301" type="curve"/>
    </contour>
  </outline>
</glyph>
<glyph name="uniFB01" format="1">
  <advance width="1219"/>
  <unicode hex="FB01"/>
  <outline>
    <contour>
      <point x="780" y="1104" type="curve" smooth="yes"/>
      <point x="780" y="1036"/>
      <point x="833" y="983"/>
      <point x="901" y="983" type="curve" smooth="yes"/>
      <point x="972" y="983"/>
      <point x="1025" y="1037"/>
      <point x="1025" y="1109" type="curve" smooth="yes"/>
      <point x="1025" y="1278"/>
      <point x="735" y="1297"/>
      <point x="616" y="1297" type="curve" smooth="yes"/>
      <point x="416" y="1297"/>
      <point x="205" y="1225"/>
      <point x="205" y="965" type="curve" smooth="yes"/>
      <point x="205" y="868" type="line"/>
      <point x="62" y="868" type="line"/>
      <point x="62" y="809" type="line"/>
      <point x="205" y="809" type="line"/>
      <point x="205" y="110" type="line" smooth="yes"/>
      <point x="205" y="27"/>
      <point x="45" y="66"/>
      <point x="45" y="17" type="curve" smooth="yes"/>
      <point x="45" y="16"/>
      <point x="46" y="10"/>
      <point x="49" y="0" type="curve"/>
      <point x="585" y="0" type="line"/>
      <point x="588" y="10"/>
      <point x="589" y="16"/>
      <point x="589" y="17" type="curve" smooth="yes"/>
      <point x="589" y="66"/>
      <point x="411" y="27"/>
      <point x="411" y="110" type="curve" smooth="yes"/>
      <point x="411" y="809" type="line"/>
      <point x="819" y="809" type="line"/>
      <point x="819" y="126" type="line" smooth="yes"/>
      <point x="819" y="32"/>
      <point x="634" y="74"/>
      <point x="634" y="17" type="curve" smooth="yes"/>
      <point x="634" y="14"/>
      <point x="635" y="9"/>
      <point x="638" y="0" type="curve"/>
      <point x="1199" y="0" type="line"/>
      <point x="1202" y="6"/>
      <point x="1203" y="12"/>
      <point x="1203" y="18" type="curve" smooth="yes"/>
      <point x="1203" y="66"/>
      <point x="1025" y="28"/>
      <point x="1025" y="120" type="curve" smooth="yes"/>
      <point x="1025" y="868" type="line"/>
      <point x="411" y="868" type="line"/>
      <point x="411" y="947" type="line" smooth="yes"/>
      <point x="411" y="1223"/>
      <point x="528" y="1256"/>
      <point x="627" y="1256" type="curve" smooth="yes"/>
      <point x="767" y="1256"/>
      <point x="791" y="1195"/>
      <point x="794" y="1162" type="curve"/>
      <point x="786" y="1147"/>
      <point x="780" y="1131"/>
    </contour>
  </outline>
</glyph>
<glyph name="uniFB02" format="1">
  <advance width="1219"/>
  <unicode hex="FB02"/>
  <outline>
    <contour>
      <point x="818" y="126" type="line" smooth="yes"/>
      <point x="818" y="31"/>
      <point x="634" y="73"/>
      <point x="634" y="17" type="curve" smooth="yes"/>
      <point x="634" y="10"/>
      <point x="635" y="8"/>
      <point x="638" y="0" type="curve"/>
      <point x="1199" y="0" type="line"/>
      <point x="1202" y="6"/>
      <point x="1203" y="12"/>
      <point x="1203" y="18" type="curve" smooth="yes"/>
      <point x="1203" y="66"/>
      <point x="1025" y="36"/>
      <point x="1025" y="120" type="curve" smooth="yes"/>
      <point x="1025" y="622" type="line" smooth="yes"/>
      <point x="1025" y="769"/>
      <point x="1026" y="936"/>
      <point x="1026" y="1123" type="curve" smooth="yes"/>
      <point x="1026" y="1208"/>
      <point x="981" y="1297"/>
      <point x="616" y="1297" type="curve" smooth="yes"/>
      <point x="416" y="1297"/>
      <point x="205" y="1225"/>
      <point x="205" y="965" type="curve" smooth="yes"/>
      <point x="205" y="868" type="line"/>
      <point x="62" y="868" type="line"/>
      <point x="62" y="809" type="line"/>
      <point x="205" y="809" type="line"/>
      <point x="205" y="110" type="line" smooth="yes"/>
      <point x="205" y="27"/>
      <point x="45" y="66"/>
      <point x="45" y="17" type="curve" smooth="yes"/>
      <point x="45" y="16"/>
      <point x="46" y="10"/>
      <point x="49" y="0" type="curve"/>
      <point x="585" y="0" type="line"/>
      <point x="588" y="10"/>
      <point x="589" y="16"/>
      <point x="589" y="17" type="curve" smooth="yes"/>
      <point x="589" y="66"/>
      <point x="411" y="27"/>
      <point x="411" y="110" type="curve" smooth="yes"/>
      <point x="411" y="809" type="line"/>
      <point x="817" y="809" type="line"/>
    </contour>
    <contour>
      <point x="817" y="868" type="line"/>
      <point x="411" y="868" type="line"/>
      <point x="411" y="947" type="line" smooth="yes"/>
      <point x="411" y="1223"/>
      <point x="528" y="1256"/>
      <point x="627" y="1256" type="curve" smooth="yes"/>
      <point x="796" y="1256"/>
      <point x="821" y="1209"/>
      <point x="821" y="1128" type="curve" smooth="yes"/>
      <point x="821" y="1096"/>
      <point x="817" y="1059"/>
      <point x="817" y="1016" type="curve" smooth="yes"/>
    </contour>
  </outline>
</glyph>
<glyph name="uniFB04" format="1">
  <advance width="1805"/>
  <unicode hex="FB04"/>
  <outline>
    <contour>
      <point x="1404" y="126" type="line" smooth="yes"/>
      <point x="1404" y="51"/>
      <point x="1293" y="62"/>
      <point x="1244" y="43" type="curve" smooth="yes"/>
      <point x="1235" y="39" type="line" smooth="yes"/>
      <point x="1225" y="34"/>
      <point x="1220" y="27"/>
      <point x="1220" y="17" type="curve" smooth="yes"/>
      <point x="1220" y="10"/>
      <point x="1221" y="8"/>
      <point x="1224" y="0" type="curve"/>
      <point x="1785" y="0" type="line"/>
      <point x="1788" y="6"/>
      <point x="1789" y="12"/>
      <point x="1789" y="18" type="curve" smooth="yes"/>
      <point x="1789" y="66"/>
      <point x="1611" y="28"/>
      <point x="1611" y="120" type="curve" smooth="yes"/>
      <point x="1611" y="1109" type="line" smooth="yes"/>
      <point x="1611" y="1278"/>
      <point x="1321" y="1297"/>
      <point x="1202" y="1297" type="curve" smooth="yes"/>
      <point x="1092" y="1297"/>
      <point x="978" y="1275"/>
      <point x="898" y="1211" type="curve"/>
      <point x="851" y="1274"/>
      <point x="714" y="1297"/>
      <point x="606" y="1297" type="curve" smooth="yes"/>
      <point x="451" y="1297"/>
      <point x="205" y="1225"/>
      <point x="205" y="965" type="curve" smooth="yes"/>
      <point x="205" y="868" type="line"/>
      <point x="62" y="868" type="line"/>
      <point x="62" y="809" type="line"/>
      <point x="205" y="809" type="line"/>
      <point x="205" y="110" type="line" smooth="yes"/>
      <point x="205" y="27"/>
      <point x="45" y="66"/>
      <point x="45" y="17" type="curve" smooth="yes"/>
      <point x="45" y="16"/>
      <point x="46" y="10"/>
      <point x="49" y="0" type="curve"/>
      <point x="585" y="0" type="line"/>
      <point x="588" y="10"/>
      <point x="589" y="16"/>
      <point x="589" y="17" type="curve" smooth="yes"/>
      <point x="589" y="66"/>
      <point x="411" y="27"/>
      <point x="411" y="110" type="curve" smooth="yes"/>
      <point x="411" y="809" type="line"/>
      <point x="791" y="809" type="line"/>
      <point x="791" y="110" type="line" smooth="yes"/>
      <point x="791" y="27"/>
      <point x="631" y="66"/>
      <point x="631" y="17" type="curve" smooth="yes"/>
      <point x="631" y="16"/>
      <point x="632" y="10"/>
      <point x="635" y="0" type="curve"/>
      <point x="1171" y="0" type="line"/>
      <point x="1174" y="10"/>
      <point x="1175" y="16"/>
      <point x="1175" y="17" type="curve" smooth="yes"/>
      <point x="1175" y="66"/>
      <point x="997" y="27"/>
      <point x="997" y="110" type="curve" smooth="yes"/>
      <point x="997" y="809" type="line"/>
      <point x="1403" y="809" type="line"/>
    </contour>
    <contour>
      <point x="1403" y="868" type="line"/>
      <point x="997" y="868" type="line"/>
      <point x="997" y="947" type="line" smooth="yes"/>
      <point x="997" y="1223"/>
      <point x="1114" y="1256"/>
      <point x="1213" y="1256" type="curve" smooth="yes"/>
      <point x="1384" y="1256"/>
      <point x="1415" y="1219"/>
      <point x="1415" y="1156" type="curve" smooth="yes"/>
      <point x="1415" y="1117"/>
      <point x="1403" y="1071"/>
      <point x="1403" y="1016" type="curve" smooth="yes"/>
    </contour>
    <contour>
      <point x="791" y="868" type="line"/>
      <point x="411" y="868" type="line"/>
      <point x="411" y="947" type="line" smooth="yes"/>
      <point x="411" y="1223"/>
      <point x="545" y="1256"/>
      <point x="617" y="1256" type="curve" smooth="yes"/>
      <point x="664" y="1256"/>
      <point x="741" y="1246"/>
      <point x="741" y="1217" type="curve" smooth="yes"/>
      <point x="741" y="1198"/>
      <point x="727" y="1177"/>
      <point x="727" y="1150" type="curve" smooth="yes"/>
      <point x="727" y="1107"/>
      <point x="752" y="1072"/>
      <point x="804" y="1068" type="curve"/>
      <point x="795" y="1037"/>
      <point x="791" y="1004"/>
      <point x="791" y="965" type="curve" smooth="yes"/>
    </contour>
  </outline>
</glyph>
<glyph name="foursuperior" format="1">
  <advance width="862"/>
  <outline>
    <contour>
      <point x="440" y="484" type="line" smooth="yes"/>
      <point x="440" y="416"/>
      <point x="292" y="451"/>
      <point x="292" y="403" type="curve" smooth="yes"/>
      <point x="292" y="401"/>
      <point x="292" y="397"/>
      <point x="294" y="393" type="curve"/>
      <point x="756" y="393" type="line"/>
      <point x="759" y="398"/>
      <point x="759" y="408"/>
      <point x="759" y="412" type="curve" smooth="yes"/>
      <point x="759" y="445"/>
      <point x="604" y="412"/>
      <point x="604" y="480" type="curve" smooth="yes"/>
      <point x="604" y="610" type="line"/>
      <point x="763" y="610" type="line"/>
      <point x="772" y="626" type="line" smooth="yes"/>
      <point x="777" y="635"/>
      <point x="782" y="647"/>
      <point x="782" y="659" type="curve" smooth="yes"/>
      <point x="782" y="683"/>
      <point x="766" y="702"/>
      <point x="703" y="702" type="curve" smooth="yes"/>
      <point x="604" y="702" type="line"/>
      <point x="604" y="1314" type="line"/>
      <point x="581" y="1314"/>
      <point x="541" y="1310"/>
      <point x="502" y="1307" type="curve" smooth="yes"/>
      <point x="432" y="1301" type="line"/>
      <point x="49" y="676" type="line"/>
      <point x="60" y="610" type="line"/>
      <point x="440" y="610" type="line"/>
    </contour>
    <contour>
      <point x="440" y="696" type="line"/>
      <point x="154" y="696" type="line"/>
      <point x="440" y="1184" type="line"/>
    </contour>
  </outline>
</glyph>
<glyph name="periodcentered" format="1">
  <advance width="498"/>
  <outline>
    <contour>
      <point x="96" y="755" type="curve" smooth="yes"/>
      <point x="96" y="674"/>
      <point x="165" y="607"/>
      <point x="249" y="607" type="curve" smooth="yes"/>
      <point x="334" y="607"/>
      <point x="402" y="680"/>
      <point x="402" y="755" type="curve" smooth="yes"/>
      <point x="402" y="831"/>
      <point x="334" y="903"/>
      <point x="249" y="903" type="curve" smooth="yes"/>
      <point x="164" y="903"/>
      <point x="96" y="831"/>
    </contour>
  </outline>
</glyph>
